<svg id="Graphic_Elements" data-name="Graphic Elements" xmlns="http://www.w3.org/2000/svg" viewBox="0 0 1200 1200"><path id="path13164" d="M619.77,1149.56c-1.35-1.38-16.47-3.85-32.19-5.26-7.68-.69-17.94-2-22.8-2.83s-19.74-1.91-33.09-2.33-27.25-1.37-30.89-2.12-11.8-1.8-18.14-2.32-13.61-1.6-16.18-2.39c-4.89-1.51-23.93-3.9-37.86-4.76-4.51-.27-9.81-1.38-11.77-2.46s-6.88-2-10.92-2.14c-11.73-.29-41.61-5.13-54.42-8.82-10.39-3-21.08-4.82-56.14-9.61-13.67-1.87-19.62-4.78-19.62-9.6a41.2,41.2,0,0,0-1.68-9.55c-1.43-4.79-1.19-7.11,1.61-15.83,3.68-11.45,8.64-17.2,19.2-22.29,3.64-1.75,7.61-3.71,8.82-4.34q2.21-1.17,2.13-7.61c-.14-12.18-2.34-56.34-2.84-57.15s-2.49-30.25-2.84-43.43c-.22-8.19-.49-8.86-3.86-9.32a11,11,0,0,1-5-1.84c-.77-.74-4.57-1.34-8.45-1.34s-7.07-.67-7.07-1.47-2-1.48-4.37-1.48a19.38,19.38,0,0,1-8.56-2.57c-7-4.29-32.66-24.25-32.66-25.37,0-.58-3.86-5.28-8.57-10.45s-10.51-13-12.87-17.45a78.06,78.06,0,0,0-6.05-9.94,15.35,15.35,0,0,1-2.67-4.83c-.51-1.61-1.5-2.93-2.2-2.93s-1.72-1.49-2.27-3.31-1.82-5.29-2.83-7.72c-3.93-9.46-7.85-23.81-8-29.42a97.57,97.57,0,0,0-1-10.29c-1.62-9.53-1.85-19.4-.59-25a90.87,90.87,0,0,0,1.68-11.77c.19-3.22,2.21-9.82,4.48-14.68s4.12-10,4.12-11.45c0-2.64,1-4.54,9.66-18,9.08-14.11,35.47-36,53.23-44.18,4.34-2,4.78-2.79,4.78-8.71,0-3.58.63-6.9,1.4-7.38a2.6,2.6,0,0,0,.57-3.05c-1.22-3.17,2.21-6.55,6.66-6.56a42.66,42.66,0,0,0,9.18-1.48c5.27-1.47,5.33-1.57,6.06-10.69.85-10.58,4.4-18.71,19.84-45.35,1.69-2.92,4-6.87,5.05-8.78,6.72-11.77,25.69-33,33.42-37.38a32.78,32.78,0,0,0,4.71-3.33c8.51-7.54,13.44-11.17,20.48-15.1,14.74-8.21,18.38-10.56,19.56-12.62.65-1.13,1.75-2.05,2.45-2.05,6.47,0,60.47-38.13,78.85-55.67,7.33-7,15.94-14.69,19.12-17.08,6.74-5.08,8.26-6.51,34.14-32.17,22.78-22.59,26.8-26.79,26.8-28,0-.94,2.3-3.63,14-16.33a101.87,101.87,0,0,0,11.17-15.05c2.43-4.23,5-8.08,5.79-8.55a4.46,4.46,0,0,0,1.38-3.44c0-1.42,1.62-4,3.59-5.72s5.31-6.73,7.39-11.14,4.83-8.88,6.09-9.92,4.31-5.91,6.78-10.8,5.39-9.57,6.48-10.38c2.31-1.72,10.85-24.41,10.85-28.79a27.62,27.62,0,0,0-2.14-8.08,55.43,55.43,0,0,1-2.31-6.2,10.22,10.22,0,0,0-2.14-3.29c-4.51-5-8.4-21.1-8.53-35.3-.13-12.7.36-15.3,5.33-28.61,3-8.06,6.34-15.67,7.39-16.92a32.33,32.33,0,0,0,3.88-7.42,51.45,51.45,0,0,1,6.75-11.15l4.8-6-1.35-10.78c-.75-5.93-2.16-13-3.15-15.73-1.42-3.93-1.4-5.92.09-9.69,1-2.61,2.9-8.05,4.15-12.09,5.41-17.51,30.19-33,52.81-33.09,20.63,0,50.33,17.28,53.07,31,.48,2.41,1.41,4.71,2.06,5.12s4.34-1.27,8.19-3.71c6.49-4.12,8-4.44,20.61-4.44,7.49,0,17.15.92,21.47,2,9.27,2.42,33.48,13.6,33.48,15.46,0,.72,1.68,1.73,3.74,2.24,5.68,1.43,16.59,13.67,21.73,24.39,4,8.23,4.58,11.14,4.53,21-.06,10.52.17,11.41,3,11.57,6.95.38,22,5.15,29.7,9.43,12.59,7,32,29.12,38.45,43.92,2.51,5.74,6,21.2,6.42,28.25.38,6.71-2.32,15.75-5.49,18.38a22.72,22.72,0,0,0-4.37,6.37c-1.19,2.49-3.12,6.18-4.3,8.2-2.07,3.59-2,3.69,2.62,4.09s5.95.87,15.41,5.06c8.07,3.59,20.35,12,26.1,17.91,12.17,12.48,25.36,36.05,23.26,41.53-.43,1.13.32,5.42,1.66,9.53,2,5.95,2.24,10.32,1.44,21.29-.78,10.61-.56,14.36,1,16.19,1.67,2,1.63,2.65-.31,4.07-1.25.93-3.1,4.16-4.09,7.18s-2.43,5.87-3.18,6.34c-1.87,1.15-1.72,10.56.18,11.74,1.08.66,1.08,1.52,0,2.82-1.62,1.95.59,5.55,9.07,14.77a33.77,33.77,0,0,1,5.72,8.83c.93,2.43,3.59,8.52,5.92,13.53s4.23,10.75,4.23,12.78.57,4,1.26,4.46c2.64,1.63,5.93,18.29,6.13,31,.28,17.91-1.77,31.86-6.44,43.79-4.36,11.17-4.64,13.65-2,18.23,9.07,15.93,10.15,20.71,8.31,36.85-.76,6.76-2,13.43-2.76,14.81a115.17,115.17,0,0,0-4.45,12.57c-3.28,10.7-11.24,24.91-19.81,35.36-2.87,3.51-5.22,6.79-5.22,7.29s-3.27,4.17-7.28,8.13c-6.31,6.25-7.41,8.22-8.3,15-.86,6.43-2,8.72-6.9,13.45-8.73,8.47-14.66,10.79-27.57,10.79-10.32,0-12-.48-25-7.07-7.66-3.89-16.88-9.68-20.49-12.87s-7-5.8-7.59-5.8-1.45-2.51-2-5.57l-.94-5.57-8.66-.24c-7.71-.22-29.07-6.16-33.11-9.21a20.71,20.71,0,0,0-5-2.19C825,667.85,811.68,659,804.4,651.76c-7.06-7.06-12.37-10.21-34.55-20.52-5.32-2.47-10.53-5.52-11.58-6.79s-2.47-2.29-3.17-2.29-4.91-2.34-9.38-5.2A95,95,0,0,0,735,610.82a37.9,37.9,0,0,1-5.92-3.09c-9.41-6-70.55-28.22-83-30.13a47.6,47.6,0,0,1-10.3-3c-6.37-2.88-26.88-6.84-35.43-6.84-3.72,0-7.14-.61-7.61-1.37s-3.12-1-5.9-.55-6.25.28-7.7-.38-7.93-1.35-14.4-1.53c-20.51-.57-44.71-2.49-52.65-4.19-1.45-.31-8.4.38-15.44,1.52a167.88,167.88,0,0,1-19.43,2.11c-9.81,0-34.42,7-49.68,14-4.26,2-8.46,3.58-9.32,3.58s-8.12,4.3-16.13,9.56-14.94,9.56-15.42,9.56c-1.66,0-14.61,10.92-20.77,17.51-4.81,5.14-6.36,8.12-7.12,13.59-1,7.58-.27,10.09,3.1,10.09,1.18,0,2.8,1.69,3.58,3.76,3.49,9.18,7.23,65.37,4.35,65.37-2.54,0-1.53,6,1.8,10.8,3.61,5.17,6.82,8.28,14.41,14,2.84,2.12,5.48,4.2,5.89,4.61,8.59,8.68,63.32,17.56,95.45,15.48,7.77-.51,28-.16,45,.78l43.51,2.38c12.05.65,13.14.45,23.6-4.45l11-5.14,19.8.34c23.13.39,25.26,1.18,36.48,13.45,5.93,6.49,8.24,10.51,10.72,18.69,2.73,9,2.91,11.11,1.35,15.44-1,2.77-1.41,5.45-.9,6s11,1,23.3,1c26.28.15,53.52,1.93,57.68,3.77a159.33,159.33,0,0,0,16.18,4.31c16.93,3.86,20.66,5.41,23.53,9.79,2.17,3.32,2.56,3.41,5.54,1.32,3.73-2.61,16-3,27.48-.79,5.42,1,11.6,4.08,21.06,10.41,13.3,8.9,29,24.46,29,28.71,0,6.62-9.93,16.77-16.41,16.78-3.19,0-4.42,9-4,29.43.18,8.49.38,33.81.44,56.26l.11,40.82h5.57c11.23,0,23,7.74,26.13,17.14,1.27,3.84,1.11,6.62-.73,13-2.67,9.16-5.66,12.52-14.49,16.23-6.25,2.63-16.29,7-26.45,11.5-6.95,3.08-9,3.11-7.83.13.56-1.47.22-2.1-1-1.72-1,.33-2,2-2.29,3.66-.51,3.47-6.08,6-13.16,6.06-7.7,0-10.9,1.54-9.91,4.67.73,2.31-.63,3.2-8.65,5.68a101.49,101.49,0,0,0-12.21,4.42c-3.32,1.82-24.38,10.82-31.37,13.4-2.83,1-7.13,2.74-9.56,3.76-7.44,3.14-23.18,9.62-30.15,12.42l-14.25,5.74c-4.19,1.69-8.67,3.08-10,3.08a12.75,12.75,0,0,0-4.87,1.32c-1.41.72-5.53,2.46-9.17,3.85-10.31,3.95-13.77,5.36-16.53,6.77a18,18,0,0,1-6.69,1.3c-2.28,0-4.79.64-5.57,1.42a9.55,9.55,0,0,1-4.34,1.95,53.66,53.66,0,0,0-8.61,3c-3.13,1.35-6.47,2.46-7.42,2.46a5.31,5.31,0,0,0-3.19,1.46c-1.76,1.75-14.21,3.62-15.48,2.31Zm8.58-9.11c.8-2.45-6.79-3.45-32.78-4.31-25-.83-29.57.52-8.38,2.44,24.94,2.25,32,3.06,32.7,3.73,1.27,1.27,7.91-.19,8.46-1.86Zm-62.83-5c0-2.13-1.16-2.27-28.68-3.57-12.45-.59-18-.43-16,.48,1.71.76,6.68,1.2,11,1a97.23,97.23,0,0,1,18.21,1.45C563.17,1137.21,565.52,1137.31,565.52,1135.49Zm-50-4.27c0-.81-2.15-1.81-4.78-2.21s-7.1-1.14-9.93-1.63c-10.93-1.9-30.29-3.16-33.09-2.15-3.25,1.16.56,1.94,18.38,3.77a82.8,82.8,0,0,1,12.05,1.9c4.43,1.63,17.37,1.87,17.37.32Zm111.79-1.78c0-.72-.84-1.3-1.86-1.3s-4.53-2.6-7.81-5.78c-6.27-6.08-10.49-15.84-8-18.38,2-2,4,.42,4.85,6,.75,4.92,7.63,15.17,10.18,15.17,2.9,0-.41-9.33-5.51-15.55-2.83-3.45-5.14-7.2-5.14-8.32,0-2.37-5.33-8.49-7.39-8.49-.76,0-1.72,1.65-2.14,3.68s-1.19,5.49-1.7,7.72l-.93,4-1.38-5c-.76-2.76-1.06-6.28-.66-7.8.53-2,.06-2.64-1.73-2.27-1.63.34-2.32,1.72-2,4.08a14.25,14.25,0,0,1-.55,5.82c-.53,1.24-.83,5.48-.66,9.41.23,5.39-.18,7-1.65,6.5-2.37-.79-3.06-18.55-.84-21.37,1-1.23.84-2.56-.39-4-2.59-3.12-4.22-2.74-6.13,1.43s-4.16,3.61-4.16-.78c0-3.73-2.48-3.67-3.68.09-.51,1.62-1.55,2.94-2.3,2.94s-1.38,1-1.38,2.21-.67,2.2-1.49,2.2-1.11-1.64-.53-4c1.49-6.22-1.36-2.48-3.41,4.48-1.5,5.06-1.46,6.32.21,7.26,1.42.79,1.7,2.34.92,5.18-1.36,4.94.69,11.52,4,13,1.36.58,10.94,1.22,21.3,1.42s19.19.72,19.64,1.16c1.33,1.34,12.28.76,12.28-.64Zm-46-7.76c-3.76-2.85-3.43-20,.38-20,.65,0,1.2,3.39,1.24,7.52,0,4.67.92,8.47,2.35,10C588.94,1123.25,585.89,1125.14,581.33,1121.68Zm17.51-3c-1-2.67.26-6.68,2.14-6.68.72,0,1.31,1.32,1.31,2.94s.05,3.42.11,4C602.62,1121.06,599.68,1120.84,598.84,1118.64Zm45.43,1.41c-.55-4.45-.64-8.09-.2-8.09s2.15,3,3.8,6.57c2.18,4.8,3.61,6.33,5.31,5.68,2.3-.89,2.2-4-.45-15-1.62-6.7,2.92-2.46,5,4.69,2.21,7.57,2.26,7.62,6.58,5.3,2.56-1.37,2.86-2.51,2-8-.56-3.73-.34-6.74.52-7.27,1.8-1.11,4.55,3.73,4.55,8,0,2.41.77,3,3.31,2.67,3-.43,3.38-1.47,4-10.77.79-11.09,2.87-11.09,4.36,0,.52,3.9,1.53,5.88,3,5.88,1.68,0,2.31-2.2,2.65-9.29.54-11.53,3.75-11.84,4.42-.43.37,6.32.9,7.62,2.94,7.23,1.82-.34,2.62-2.27,3-7.08.57-8.13,2.71-10.8,4-5,1.58,7.16,2,7.94,4.23,7.94,1.44,0,2.32-1.85,2.62-5.52.26-3.06,1.12-5.19,1.93-4.78a2.94,2.94,0,0,1,1.15,2.94,10.42,10.42,0,0,0,.39,4.21c.58,1.65,1.11,1.67,3,.09,1.67-1.39,2.17-3.94,1.82-9.35-.38-5.86,0-7.45,1.72-7.45s2.11,1.7,1.71,8.46c-.42,7.24-.15,8.33,1.84,7.56,1.69-.64,2.34-2.87,2.34-8.09,0-5.67.5-7.2,2.39-7.2s2.27,1.18,1.67,6.5c-1.34,11.88,5.13,4.58,7.15-8.06,1.27-8,2.67-6,2.19,3.07-.29,5.6.12,7.32,1.75,7.32,3.42,0,5.18-3.21,6.27-11.44,1-7.78,3.37-10.45,3.83-4.37.14,1.82.4,4.3.58,5.51s.4,3.09.48,4.16,1.32,1.72,2.74,1.45c2-.37,2.74-2.39,3.3-8.56.73-8,3.3-10.57,4.09-4.09.87,7.11,1.94,10.07,3.31,9.22.79-.48,1.43-2.78,1.43-5.11a26.75,26.75,0,0,1,1.4-7.92c1.36-3.58,1.55-3.62,5.89-1.46,2.59,1.29,4.48,3.39,4.48,5s.65,3.15,1.45,3.64c1.64,1,19.36-5.07,27.65-9.49,7-3.76,24.73-11.82,25.93-11.82.51,0,6.7-2.7,13.76-6,15.17-7.08,35.2-20.15,36.43-23.76,1.15-3.4-2.11-9.77-6.77-13.22-6-4.42-22.88-3.44-40.31,2.33-6.45,2.13-12.47,3.88-13.37,3.88s-6.88,1.64-13.28,3.64-13.13,3.87-15,4.14a10.56,10.56,0,0,0-5.07,2.24c-1,1-3.51,1.74-5.66,1.74s-6.16,1.53-8.92,3.4c-4.51,3.06-18.4,8.48-34.38,13.42a187.77,187.77,0,0,0-18.6,7.94c-7,3.37-13.48,6.13-14.41,6.13s-6.78,2.6-13,5.78-14.31,6.89-18,8.24-7.77,3.06-9.18,3.78a13.07,13.07,0,0,1-5,1.32,9,9,0,0,0-4.8,2c-3.23,2.73-27.43,10.11-31.28,9.54-3.65-.54-5.33-3.84-2.42-4.76,1.08-.33,5.77-1.75,10.42-3.14,8.34-2.49,11.18-5.07,5.59-5.07a5.25,5.25,0,0,1-4.05-1.84,13.72,13.72,0,0,0-4.12-3.5c-2.07-1.18-2.81-2.92-2.52-5.89.7-7,2.06-9.15,3.16-4.95.6,2.27,2,3.68,3.73,3.69,1.51,0,3,.83,3.36,1.84.92,2.77,2.87,2.19,3.73-1.11,1.28-4.91,4.48-3.57,3.48,1.45-1.21,6,.17,8.84,4.31,8.84,3.08,0,3.38-.5,2.6-4.41-.53-2.61-.14-5.3,1-6.62,2.84-3.42,4.42-2.63,4.42,2.21,0,3.61.6,4.4,3.31,4.36a17.78,17.78,0,0,0,6.88-2c3.56-2,3.58-2.1,3.68-26.41.06-15,.67-24.59,1.57-24.81s1.61,5.18,1.83,13.6c.25,9.78,1.31,16.69,3.53,23,3,8.55,3.37,9,6.55,7.52l3.37-1.53L687.3,1062c-2.86-2.33-3.06-3.83-2.83-22.18.13-10.83.89-20.35,1.68-21.14,1-1,1.4,1.3,1.29,6.56-.21,10.06,1.46,21.21,4.12,27.59,1.13,2.7,1.65,6.19,1.16,7.75s-.21,2.83.67,2.83,1.57-1.67,1.57-3.72c0-4.68,3.89-6.37,6.49-2.82,1.85,2.54,2.18,2.51,7.37-.55,3-1.76,6.3-3.2,7.37-3.2s5.49-1.55,9.84-3.44,9.23-3.92,10.85-4.51c2.73-1,2.76-1.18.36-2.52-2-1.13-2.57-3.4-2.57-10.29,0-10.14,2.27-10.49,3.75-.58,1.45,9.63,3.54,10.71,13.62,7,33-12,47.39-17,52.5-18a129.44,129.44,0,0,0,14-4.23c4.45-1.64,14.33-4.92,22-7.29l13.86-4.3-.23-32.92c-.38-53.19-1.15-85-2.06-85.94-1.69-1.68-43.85,14.68-45.62,17.71-.58,1-2.67,1.52-4.63,1.14a7.3,7.3,0,0,0-6.66,2.4,11.61,11.61,0,0,1-8.2,3.09c-2.9,0-8.67,1.93-13.33,4.44s-8.74,4.12-9.4,3.72-4.74,1.15-9.1,3.47a109.72,109.72,0,0,1-16.74,6.82c-4.86,1.44-9.49,3.09-10.3,3.66-2.23,1.56-19.82,6.94-26.47,8.09a31.12,31.12,0,0,0-8.83,2.84c-1.62,1-15.52,5.29-30.89,9.54s-29.09,8.32-30.5,9.05a14,14,0,0,1-5.43,1.32c-1.58,0-3.3.7-3.83,1.55s-1.26,13.59-1.64,28.32-1,27.59-1.29,28.6,0,1.84.67,1.84,1.35,4.8,1.44,10.66.47,16.29.86,23.17.71,13,.72,13.6c.06,2.61,2.82.81,3.4-2.2.35-1.82.73-.17.84,3.68s-.42,7-1.18,7-1.79,1.33-2.3,2.94c-1,3.1-5.78,4-7.39,1.42-.52-.84-1-4.37-1-7.84s-.59-7.24-1.32-8.4c-.88-1.39-1.34.67-1.35,6.12,0,4.52-.43,8.62-.93,9.12s-2.45-.11-4.34-1.35-4.13-1.84-5-1.33c-2.18,1.34,1.4,6.57,3.84,5.64,4.48-1.72,9,.95,9.89,5.91a13.71,13.71,0,0,0,5.28,8.12c2.62,1.94,6.77,8.21,10.4,15.71,5.22,10.78,6.55,12.48,9.76,12.48,3.66,0,3.71-.15,2.71-8.09Zm146.32-52.58a12,12,0,0,1,1.31-5.35c1-1.61,1.48-1.43,2.21.9,1,3.29-.24,7.76-2.23,7.76C791.16,1070.78,790.57,1069.29,790.59,1067.47Zm-126.47-1c-1.59-3-1-58.51.69-60.16,2.4-2.4,5.35,10,3.26,13.77-.94,1.68-1.07,9.38-.37,21.16.6,10.18,1.19,20.44,1.31,22.78.25,5.17-2.66,6.63-4.89,2.45Zm145.81-7.65c.27-1.92,1.15-3.31,2-3.11,2.17.54,1.79,5.16-.49,5.92C810.06,1062.07,809.59,1061.19,809.93,1058.81Zm-184.84-5.68c-.5-.81-.21-1.48.65-1.48a1.53,1.53,0,0,1,1.56,1.48c0,.8-.3,1.47-.65,1.47S625.59,1053.93,625.09,1053.13Zm84-12c-1.38-6.94-1.06-20.85.56-23.35,1.09-1.7,1.44-1.19,1.5,2.21a79,79,0,0,0,2.1,12.89c1.76,7.39,1.74,8.77-.16,10.67-2.9,2.9-2.94,2.88-4-2.42Zm-12.93-1.41c-.63-12.69-.4-20.8.61-21.43s1.47,4,1.41,17.62c0,8.22-1.65,11.27-2,3.81Zm26,3c-1.32-2.13-.48-23.76,1-26.82s5-3.43,5.86-.74c1,3.1.32,25.43-.83,27.3-1.33,2.14-4.82,2.29-6.07.26Zm-69.89-3.66c-.23-.81-.54-2.13-.7-2.94s-.77-3.23-1.37-5.38c-1.31-4.7,1.55-11.21,3.89-8.86,1,1,1,4.25,0,10.08-.8,4.72-1.65,7.91-1.87,7.1Zm94.45-3.79a2,2,0,0,1,3.85,0c.29.87-.58,1.59-1.93,1.59S746.43,1036.23,746.72,1035.36Zm-105.39-3.19c-1.28-4.66.09-9.65,2.1-7.61.73.75.8,3.65.16,6.5l-1.16,5.15-1.1-4Zm-12.76-3.31c-.51-10.13-.12-17.09,1-18.13.6-.55,1.36-.21,1.71.76a2,2,0,0,0,2.74,1c1.6-.62,2.11.51,2.11,4.65s-.49,5.27-2.2,4.61c-1.34-.51-2.21,0-2.21,1.27s.87,1.78,2.21,1.27c1.68-.65,2.2.3,2.2,4s-.41,4.45-1.71,3.15-2.17-1.11-3.63.81c-1.69,2.21-1.95,1.81-2.21-3.36Zm128.34-.42c-2.26-4.22-3.71-23.31-1.86-24.46,1.58-1,2.42,1.31,3.72,10.17.35,2.42,1.12,7.22,1.7,10.66C761.58,1031.4,759.58,1033.44,756.91,1028.44Zm11.05-3c-.6-1-1.46-18.1-1.1-22,.09-1,.74-1.84,1.43-1.84s1.68,3.81,2.2,8.46a104.54,104.54,0,0,0,1.8,11.57c.83,3-2.85,6.24-4.33,3.81Zm-126-7.74c0-1.67.63-2.64,1.4-2.16a2.58,2.58,0,0,1,.58,3c-1.17,3-2,2.68-2-.87Zm101.61-2.63c-1.91-3.56-2.06-11.93-.27-14.75.85-1.35,1.64,1,2.34,7.07q1.71,14.73-2.07,7.68Zm-71.06-2.31c-1.31-6.84-1.28-25.21,0-28.79,1.17-3.15,1.44-2.73,2.41,3.73,1.8,12,1.75,27.55-.09,28.17-.91.31-2-1.09-2.36-3.11Zm107,.63c-1.27-2.07.76-14.73,2.37-14.73s1.68,14.3-.07,15.38a1.68,1.68,0,0,1-2.29-.65Zm-99.5-4.8c-.32-7.25.44-25.29,1.1-26,1.72-1.82,2.59,2.86,3,16.05.37,12.15.07,14.71-1.71,14.71C681,1013.41,680.17,1011.76,680,1008.63Zm54.16,3.83c-1.46-1.47-1.22-7.87.3-7.87,1.77,0,3.29,6.29,1.86,7.72a1.54,1.54,0,0,1-2.15.15Zm-45.62-7.38c-.54-.54-1-6.17-1-12.51,0-9,.46-11.52,2.09-11.52s2.21,2.71,2.58,11.07c.26,6.08.26,11.71,0,12.5-.57,1.66-2.27,1.87-3.68.46Zm-25-10.3c-.93-9.91-.38-13,2.06-11.46,1.72,1.06,1.82,19.35.11,20.4-.7.43-1.67-3.59-2.17-8.94Zm-208,128a8.47,8.47,0,0,0-4.41,0c-1.44.37-.62.7,1.81.73S456.59,1123.17,455.6,1122.76Zm80.5-.5c0-.81-1-1.47-2.2-1.47s-2.21.66-2.21,1.47,1,1.47,2.21,1.47S536.1,1123.07,536.1,1122.26Zm17.65,0c0-.81-.29-1.47-.65-1.47s-1.05.66-1.55,1.47-.21,1.47.64,1.47A1.52,1.52,0,0,0,553.75,1122.26Zm-122.08-1.47c0-.81-1-1.48-2.21-1.48s-2.2.67-2.2,1.48,1,1.47,2.2,1.47S431.67,1121.59,431.67,1120.79Zm90.56-.17c1.42-2.29-2.4-4.43-6.28-3.52-1.79.42-4-.07-4.81-1.08-6.29-7.43-7.4-9.43-7.4-13.38,0-2.45,1.09-8.33,2.41-13.05s2-9,1.54-9.47-2.48-.47-4.44,0c-4.43,1.12-8.25,8.78-9.71,19.47-.93,6.91-.73,8,1.63,8.75a3.71,3.71,0,0,1,2.69,3c0,1.57-1.86,2.13-7,2.12-3.84,0-8,0-9.19,0s-6-.26-10.64-.64c-7.72-.64-11.92.64-8.69,2.64.71.44,8.56,1.22,17.43,1.73s20.05,1.77,24.83,2.82c11.18,2.44,16.36,2.6,17.62.56Zm35-19.5c3.27-7.85,3.18-14.48-.2-13.93a7.63,7.63,0,0,1-4.58-.83c-2.44-1.53-4,.76-5.33,7.64-1.06,5.65.11,8,2.38,4.68,1.11-1.59,1.26-1,.56,2.25-2.51,11.57-2.49,13.5.22,16.2s2.73,2.51,3.63-3.81A60.68,60.68,0,0,1,557.26,1101.12ZM699,1118.43a3,3,0,0,0-2.82-.12c-1.17.47-.82.82.89.89,1.55.06,2.42-.28,1.93-.77Zm-297.74-4.18c-6.73-2.11-16.77-3.55-30.84-4.42-5-.32-10.4-1.29-12-2.16a13.66,13.66,0,0,0-5.64-1.53c-6.43.14,9.27,5.65,20.32,7.14,6.64.9,12.39,2,12.8,2.36s5.42.69,11.15.63l10.42-.09-6.17-1.93Zm130.44-6c0-1.61,1.35-5.11,3-7.75,3.16-5.19,3.81-9.16,1.5-9.16s-5.72,8-6.69,16.32c-.68,5.8-.51,7.35.63,5.74A10.55,10.55,0,0,0,531.67,1108.28Zm187.87,4.22c3.47-1.33,6.31-3,6.31-3.66,0-1.09-14.41,3.8-16.06,5.45C708.37,1115.71,713.7,1114.73,719.54,1112.5Zm-283-2.1c-1.07-1.07-3.16-1.11-6.55-.14l-5,1.44,6.55.13C436.22,1111.92,437.68,1111.5,436.58,1110.4Zm-12.39-1.76c-.34-.22-2.1-1.64-3.92-3.17-3.27-2.76-3.31-2.75-3.31.38,0,2.45.89,3.17,3.92,3.17C423,1109,424.53,1108.85,424.19,1108.64Zm92.9-2.39c.94,1.53,1.41,1.4,2.18-.6a5.09,5.09,0,0,0-.7-4.58c-1.28-1.54-1.12-3.57.67-8.44,4-11,4-11.11,1-11.91a6.85,6.85,0,0,0-4.48.22c-2.59,1.6-6.09,13.24-6.09,20.23,0,6.15.15,6.4,3.12,4.81,2.43-1.3,3.4-1.24,4.34.27Zm45-3.48c-.41-1-.74-.19-.74,1.84s.33,2.85.74,1.83A5.63,5.63,0,0,0,562.08,1102.77Zm-127.57-5.2c.05-1.85,1.8-6.71,3.88-10.81s3.4-7.83,2.94-8.29c-1-1-.64-1.55-5.45,8.49-5.3,11-5.9,13.16-4.76,16.75,1,3.06,1,3.06,2.13.16a22.53,22.53,0,0,0,1.26-6.3Zm107.41,1.7c1.65-3.74,3-7.71,3-8.82a1.84,1.84,0,0,1,1.55-2c.86,0,1.15-.68.64-1.5-1.33-2.14-3-.71-5.54,4.78s-4.66,14.37-3.46,14.37c.43,0,2.14-3.07,3.8-6.81ZM488,1100.56c.72-3.77.25-6.06-1-4.66-1.38,1.6-2.31,8.71-1.14,8.71.73,0,1.68-1.82,2.11-4Zm-164.34,1.27c-.45-.72-3-1.67-5.6-2.11-8.84-1.48-29.1-6.42-30-7.32-.49-.49-1.91.13-3.16,1.38-1.93,1.93-2,2.46-.19,3.58a13.5,13.5,0,0,0,5.75,1.4c9.33.21,21.46,1.84,22.73,3,1.81,1.73,11.53,1.75,10.47,0ZM465.48,1099c0-2.14-.22-2.18-1.45-.28-1.86,2.88-1.86,4.83,0,3.68A4.33,4.33,0,0,0,465.48,1099Zm-83.26-3.18c.51-3.21,3.9-11.47,7.54-18.37s6.61-13,6.61-13.54c0-1.57-9.92,9.76-14.86,17-4.81,7-7.16,14.89-4.45,14.89.91,0,1.66,1.32,1.66,2.94,0,5.23,2.53,3.12,3.5-2.9Zm73.87,3.27a24.39,24.39,0,0,1,2.18-4.78c.76-1.21,2.64-5,4.18-8.3s3.52-6.53,4.4-7.07c2.31-1.43,1.95-3.75-.58-3.75-1.2,0-3.28,1.82-4.63,4s-3.72,5.91-5.28,8.18c-3.46,5-5.25,14.25-2.77,14.25C454.53,1101.66,455.65,1100.51,456.09,1099.09Zm70.15-7.22c1.45-2.9,2.42-5.49,2.16-5.75-1-1-3.46,1.72-5.52,6-1.17,2.43-2.37,4.91-2.67,5.52s.35.75,1.43.31,3.15-3.16,4.6-6.06ZM339,1091.59c0-1.4,2-4.83,4.36-7.63s4.38-6,4.41-7,.73-1.51,1.54-1,.68,2.09-.73,4.1a12.67,12.67,0,0,0-2.18,6.15c0,2.73.17,2.77,1.55.41a5.14,5.14,0,0,1,3.76-2.58c1.83,0,2.07,1.15,1.23,6.07-.72,4.29-.54,5.78.61,5.06.9-.55,1.63-2.49,1.63-4.3,0-4.87,3.29-11.12,6.39-12.12a2.71,2.71,0,0,0,2-3.67c-.4-1.54-.15-2.8.55-2.8s2-1.33,2.86-2.94c3-5.59-1.23-3-6,3.67-2.62,3.64-5.47,6.57-6.34,6.51s-.77-.45.24-.86,1.84-2.06,1.84-3.66c0-2.25-.67-2.71-2.94-2-3.51,1.12-3.86-1.6-.73-5.73,1.16-1.54,1.76-3.36,1.33-4s-.14-1.25.63-1.25,1.81-1.16,2.3-2.57c1.3-3.69-10.18,9.36-15.5,17.62-4.56,7.08-7.77,20.25-4.43,18.18a4.6,4.6,0,0,0,1.69-3.59Zm33.23-16c4.62-8.7,4.69-9.06,1.37-6.89-6.19,4.06-12.54,15.46-12.53,22.49,0,3.79.08,3.76,3.15-1.27,1.73-2.83,5.33-9.28,8-14.33ZM476.64,1091a35.15,35.15,0,0,1,4.69-8.09c2-2.63,2.91-4.78,2-4.78s-3.17,2.48-5.06,5.52c-4.31,6.92-5.72,10.66-4,10.66C475,1094.31,476.07,1092.82,476.64,1091Zm8.17-1.47c1.6-3,1.53-3.12-.68-1.29-1.35,1.11-2.45,2.6-2.45,3.31C481.68,1093.79,483,1093,484.81,1089.53Zm-85.55-4c0-2-.15-2-1.42,0a9.7,9.7,0,0,0-1.43,4.42c0,2,.16,2,1.43,0A9.8,9.8,0,0,0,399.26,1085.48Zm32.4-3.38c0-.65,1.63-3.58,3.62-6.5,3.67-5.4,3.67-9.28,0-6.24s-9.49,14.41-9.49,18.59l0,4.15,2.92-4.41c1.61-2.43,2.93-4.94,2.93-5.59Zm-91.19-10.55c0-1.23.52-2.25,1.16-2.25s2.32-2,3.76-4.41c2.95-5,1.3-5.9-2.71-1.47-1.46,1.62-3.55,2.94-4.64,2.94a2.14,2.14,0,0,0-2,2.27c0,1.25-1.27,4.06-2.82,6.25a28.44,28.44,0,0,0-3.87,9.13l-1.05,5.15,6.08-7.68C337.74,1077.26,340.47,1072.79,340.47,1071.55Zm132.84,10.86c.61-2.33.36-2.63-1.15-1.37a10.31,10.31,0,0,0-2.71,4.58c-.61,2.33-.36,2.63,1.15,1.37a10.13,10.13,0,0,0,2.71-4.58Zm-184.07,2.64c-.87-1.06-1.44-3.87-1.26-6.26.25-3.24,1.16-4.46,3.61-4.81s3.29.27,3.29,2.53c0,2,.7,2.73,2.09,2.19s2.25.45,2.58,3.25c.49,4.18,4.15,6.92,4.15,3.1a6.2,6.2,0,0,1,2.21-4c1.84-1.52,2.2-1.33,2.2,1.14,0,1.63.88,3.3,1.95,3.7,2.82,1.09,6.31-12.2,3.63-13.86-1.45-.9-1.12-2,1.41-4.49,2.07-2.08,3.31-2.59,3.31-1.37s.93,1.6,2.21,1.11c2.75-1.06,2.75,1.6,0,6.42a17,17,0,0,0-2.16,6.51c0,2.62.22,2.57,3.63-.63,2-1.9,3.68-4.3,3.68-5.33a4.12,4.12,0,0,1,1.9-3c2.3-1.43,7.05-11.1,6-12.18-.42-.42-1.64.44-2.72,1.91-2.58,3.54-11.87,3-11.59-.72s-2.43-2-8.11,4.68c-5.34,6.28-8.68,7.84-6,2.8,1.31-2.46,1.15-3.42-.86-4.88-2.29-1.68-2.17-2.17,1.46-6.1,2.68-2.89,3.36-4.47,2.1-4.89-1-.34-2.82.8-4,2.54-2.39,3.6-6.52,4.35-5.21.95,1.08-2.81-.15-2.79-4.52.07-4.75,3.11-10.18,16.07-10.3,24.57-.09,6.4.2,7,3.39,7,2.7,0,3.13-.44,1.91-1.91Zm5.64-14.85c0-.32,1-1,2.2-1.43s2.21-.2,2.21.58-1,1.43-2.21,1.43S294.88,1070.52,294.88,1070.2Zm-.66-8.12a1.64,1.64,0,1,1,2.25.53A1.65,1.65,0,0,1,294.22,1062.08Zm286,18.28a5,5,0,0,1-.72-4.78,24.82,24.82,0,0,0,1.26-7c.14-3.24.87-4.36,2.76-4.21,1.65.13,2.65-.92,2.8-2.94.13-1.73.36-5,.52-7.14A12.92,12.92,0,0,1,589,1048c1.12-1.36,1.52-4,1-6.67-.5-2.48-.26-4.4.55-4.4s1.43-1.5,1.43-3.33c0-3.66-5.21-7.79-9.1-7.19-1.36.2-3.2-1-4.09-2.65-2.77-5.18-4-3.38-5.18,7.65-1.32,12.26-2,17.28-3.15,25-.69,4.45-.4,5.52,1.51,5.52,2.73,0,2.69-.14,3.07,9.68.33,8.45,1.39,10.91,4.71,10.91,1.87,0,2-.41.48-2.18Zm219.15.71a1.43,1.43,0,0,0-1.38-1.47,3.15,3.15,0,0,0-2.3,1.47c-.5.81.12,1.47,1.39,1.47S799.39,1081.88,799.39,1081.07Zm-343.63-2.28c.51-1.31.26-1.9-.57-1.38a3.13,3.13,0,0,0-1.46,2.28C453.73,1081.8,454.79,1081.34,455.76,1078.79Zm111.2-3.91c2.17-3.56,2.43-5,1.09-5.86-2.79-1.78-3.24-1.49-5,3.23-1.31,3.46-2.56,4.41-5.84,4.43s-3.68.34-2,1.45c4.39,2.83,8.78,1.61,11.74-3.25Zm29-.77c-.38-1.43-.71-.61-.74,1.81s.28,3.6.68,2.61A8.5,8.5,0,0,0,596,1074.11Zm-216.51,2.55c.5-.81.21-1.47-.65-1.47a1.52,1.52,0,0,0-1.55,1.47c0,.81.29,1.47.64,1.47S379,1077.47,379.45,1076.66Zm171.73-2.47c2.2-1.29,1-5.06-1.47-4.81-5.78.59-6.25,0-6.25-7.91,0-11.33,3-39.84,4.33-40.7.61-.41,1.12-3.06,1.13-5.89s.19-17.65.41-32.92c.32-22.48,0-28-1.63-28.78-1.12-.55-5.81-.73-10.43-.4l-8.38.59-1,6.55c-.54,3.61-.57,7-.07,7.47s.92-.48.92-2.19c0-3.54,2.27-5.54,3.69-3.25s.79,53-.79,55.94c-.95,1.78-.88,2.81.21,3.18s1.15,2.15-.06,6.37c-2.13,7.42-3.77,37.58-1.88,34.51,1.38-2.24,4.41-26.66,5.08-40.92q.36-7.83,2.94-10.16c2.43-2.2,2.57-1.68,2.57,9.4a140.2,140.2,0,0,1-1.42,19.72c-2.37,13.25-3.1,27.84-1.4,27.84.85,0,1.35,1.16,1.11,2.58-.75,4.57,1.61,6.5,6.63,5.43a31.69,31.69,0,0,0,5.75-1.65Zm-12.67-70.62c-1.46-1.46-1.11-12.1.5-15.11,1-1.89.88-3.15-.44-4.25-3.07-2.55-1.22-25,1.9-23,1.7,1.05,1.94,41.51.24,42.56A1.88,1.88,0,0,1,538.51,1003.57Zm276.32,71.62c.5-.81-.08-1.47-1.29-1.47a4,4,0,0,0-3.12,1.47c-.5.81.09,1.47,1.3,1.47A4,4,0,0,0,814.83,1075.19Zm-286.21-4.78c1.71-4.52.37-6.2-2.71-3.4-1.4,1.26-3,1.86-3.53,1.32s-1,.45-1,2.2c0,4.4,5.56,4.3,7.23-.12ZM411,1065.82c0-.71-.95-.46-2.16.54a6.38,6.38,0,0,0-2.21,4.14c0,1.85.43,1.74,2.16-.55A11.54,11.54,0,0,0,411,1065.82Zm423.66,1.12c0-.32-1-.58-2.21-.58s-2.2.64-2.2,1.43,1,1,2.2.58,2.21-1.11,2.21-1.43Zm-346.76-1.81c-1.42-1.49-3.1-2.43-3.75-2.08-1.65.89,1.85,4.78,4.3,4.78,1.52,0,1.38-.67-.55-2.7Zm16.64-5a47.27,47.27,0,0,1-1.36-13.6c.26-4,1.44-20.56,2.62-36.69s1.75-30,1.26-30.77-.76-5.13-.59-9.65c.5-13.95,2.05-15.81,8.82-10.61,2.71,2.09,3.47,4,3.4,8.8-.05,3.36.54,6.11,1.29,6.11s1.4-2.15,1.42-4.78a59.17,59.17,0,0,1,1.39-10.63c1.7-7.32.13-8.61-8.78-7.23-8,1.23-23.66.78-25.72-.74a39.37,39.37,0,0,0-7.93-3c-7.26-2.08-9.53-.93-8.76,4.46.37,2.66,1.27,3.37,3.8,3,3.12-.43,3.31,0,3.31,8.55,0,5,.59,8.63,1.33,8.18s1-2,.65-3.44c-.92-3.51,2-11,3.9-9.89.81.5,1.47,5.41,1.47,10.92a143.65,143.65,0,0,0,1.08,17.19l1.08,7.19,1.18-8.82c.64-4.85,1.32-12.47,1.49-16.92.37-9.44,1.8-12.3,5.63-11.29,1.53.4,2.78.12,2.78-.61s1.41-1.33,3.14-1.33c2.88,0,3.07.55,2.24,6.61-.5,3.63-1.3,19.33-1.78,34.87s-1.28,28.93-1.78,29.74-1.28,9.78-1.73,19.92c-.78,17.37-.66,18.53,2.12,20,4.41,2.4,5,1.24,3-5.65Zm-27.3.7c0-2.07-.42-3.34-.93-2.83s-2.12.29-3.58-.49c-2.33-1.25-2.58-3.06-2-15,.33-7.48,1-18.07,1.46-23.53.5-5.85.28-9.93-.54-9.93-2.36,0-3.16,6-3.18,23.78,0,9.44-.42,18.21-.91,19.49s-2.44,2.33-4.33,2.33-3.86.69-4.38,1.54c-1.16,1.87-14.22.22-15.64-2a4.42,4.42,0,0,1-.21-3.48c.42-1.08.11-2-.68-2s-1.85,2-2.34,4.44c-.86,4.3-1.07,4.4-7.17,3.48-3.45-.53-7.32-1.86-8.6-3-3.1-2.69-11.65-2.67-11.65,0,0,2.17,4,3.18,18.38,4.65,4.86.49,12.14,1.59,16.18,2.42s9,1.65,11,1.8a22.37,22.37,0,0,1,5.89,1.23c3.1,1.33,9.21,2.07,11.4,1.37,1-.33,1.84-2.29,1.84-4.36Zm-104,.36c1.45-2,2.12-3.61,1.47-3.59s-2.36,1.68-3.81,3.68-2.12,3.61-1.47,3.59S371.82,1063.17,373.27,1061.17Zm148.65-5.1.93-8.09-2.27,5.12c-1.25,2.82-1.88,6.7-1.4,8.63C520.38,1066.49,520.83,1065.54,521.92,1056.07Zm43,4.63c-.68-1.1.15-8.38,2.77-24.49.65-4,.54-4.11-1-1.47s-1.87,2.46-3.06-2.94c-1.58-7.19-1.52-12.14.35-31.92.85-9,.92-17.17.17-19.68-1.16-3.9-1.31-3.63-1.58,3.06A76.94,76.94,0,0,1,561.16,995c-2.14,8.89-3.38-.59-2.7-20.68.62-18.42.48-19.77-2-19.77s-2.71,1.74-2.9,21.69c-.12,11.93-.36,24-.53,26.85s-.8,13.08-1.4,22.79-1.34,18.08-1.68,18.62,0,2.52.78,4.41,1.43,2.62,1.48,1.61c.19-3.84,4.18-1.63,5.06,2.8a18.71,18.71,0,0,0,2.57,6.62c1.78,2.14,6.38,2.79,5.1.73Zm38.82-6.72c0-6-1.76-3.59-2.16,2.87-.2,3.29.15,4.56.91,3.36a14.85,14.85,0,0,0,1.25-6.23Zm9.86,1c-.37-1.41-.67-.25-.67,2.58s.3,4,.67,2.57A12.09,12.09,0,0,0,613.6,1055Zm-290.2-1.22c.55-1.43.22-2.11-.85-1.75-2.2.73-3.41,4.08-1.48,4.08C321.86,1056.07,322.91,1055,323.4,1053.74Zm79.22-3.23c-1.86-1.89-2.71-2.1-3.05-.74-.61,2.43-6.14,2.47-6.15,0,0-4-3.15-12.87-4.52-12.87-1.58,0-1,11.7.71,14.47.57.94,4.32,1.71,8.32,1.71,6.95,0,7.15-.12,4.69-2.62Zm-24.71-1.5c-2.52-2.1-12.38-4.92-13.92-4-2.6,1.62-.11,3.48,4.48,3.35,2.42-.07,4.84.31,5.36.83a5.36,5.36,0,0,0,3.22,1c1.31,0,1.67-.49.86-1.17Zm73.9-4.31c-.37-1.44-.7-.62-.73,1.81s.27,3.59.68,2.6A8.47,8.47,0,0,0,451.81,1044.7Zm423.3,2.7c7.24-2.75,11.21-6.39,9.18-8.41-.57-.58-2.2-.06-3.62,1.15a31.49,31.49,0,0,1-7.26,4c-2.57,1-5,2.78-5.47,3.92-1,2.55-1.58,2.61,7.17-.71Zm-414-3.92c0-1.26-.67-1.89-1.47-1.39a3.18,3.18,0,0,0-1.48,2.3,1.44,1.44,0,0,0,1.48,1.38C460.42,1045.77,461.09,1044.74,461.09,1043.48ZM331.32,1041a9.92,9.92,0,0,1-3.05-4.78c-.55-2.33-.73-2.16-.86.86-.2,4.32.81,5.76,4,5.76,1.94,0,1.93-.24-.12-1.84Zm272.59-12.45c-1.22-2.09-1.51-1.28-1.46,4,.07,6.11.19,6.31,1.53,2.63,1-2.68,1-4.85-.07-6.62Zm-149.49-2.75c.91-7.27.39-11.13-1.24-9.31-1.09,1.2-1.87,17.52-.84,17.52C452.92,1034,453.85,1030.31,454.42,1025.79Zm-30.6-2.45c-.41-1-.74-.18-.74,1.84s.33,2.85.74,1.84A5.66,5.66,0,0,0,423.82,1023.34Zm146.88-3.58c-1-2.51-1.15-2.5-2.21.27-1.37,3.57-.26,6,1.8,3.9C571.12,1023.11,571.3,1021.23,570.7,1019.76Zm-146.39-10c0-4.45-.66-8.09-1.47-8.09s-1.47,3.64-1.47,8.09.66,8.09,1.47,8.09S424.31,1014.18,424.31,1009.73ZM612.59,1008c0-10.89-2.27-11.31-3.47-.65-.77,6.79,0,10.5,2.15,10.5.73,0,1.32-4.43,1.32-9.85ZM590,982.43c.61-18.18.36-23.24-1.22-24.55-2.24-1.86-21.6-3-24.14-1.45-.9.56-1.3,2.78-.89,4.93.75,3.91.75,3.91,3.11.83s2.49-3,5.77-.49c3.12,2.37,3.44,3.91,3.91,18.44.28,8.71.9,16.23,1.38,16.71s.93-1.06,1-3.42c.66-21,2.34-30,5.61-30,3.84,0,3.07,37.66-.82,40.7-1.95,1.51-1.92,2.15.28,5.51,1.37,2.09,2,3.8,1.5,3.8s-.47.83.16,1.84C587.6,1018.4,589.16,1006.59,590,982.43Zm-17.58,21.89c.78-8.13.75-9.59-.39-16.33-.82-4.93-1.15-5.28-2.79-3-1.27,1.74-1.46,3.92-.58,7a20.34,20.34,0,0,1,.15,8.92,28.36,28.36,0,0,0-.6,8.7C568.92,1015.61,571.63,1012.25,572.39,1004.32Zm-90.36,4a72,72,0,0,0,.29-12.13c-.21-4.68-.51-11.82-.64-15.86-.22-6.37-.42-6.81-1.47-3.3s-2,22.3-1.62,31.61C478.79,1013.07,481.16,1012.85,482,1008.31Zm-49-4.59c-2-5-3.6-2.43-2.15,3.35.63,2.5,1.46,3.33,2.41,2.38S434.13,1006.53,433,1003.72Zm32.53.88c0-.41.62-5.22,1.33-10.69,1.71-13.3.56-21.68-3-21.68a4.84,4.84,0,0,0-3.85,2,6.46,6.46,0,0,1-3.87,2.57c-1.75.35-3.69,3.37-5.52,8.57-3.25,9.26-3.27,9.33-1.47,8.22.74-.46,2.09,1.41,3,4.15,1.07,3.25,2.52,4.92,4.16,4.79s2.7,1,3,3.07c.41,2.83.84,3,3.31,1.49C464.22,1006.15,465.52,1005,465.55,1004.6ZM497.4,1002c-.37-1.41-.67-.26-.67,2.58s.3,4,.67,2.57A12.09,12.09,0,0,0,497.4,1002Zm97.51-4c0-8.67-2.55-7.44-2.94,1.4-.42,9.52-.2,10.71,1.5,8.09.78-1.22,1.43-5.48,1.44-9.49Zm-204.43-2.86c0-9.33.52-12.54,2.1-13.15a4,4,0,0,1,4,1.45c1.64,2,2,1.88,3-.83.62-1.69,2.15-3.07,3.39-3.07,2.32,0,2.95-3.81,1.34-8-.85-2.19-1.15-2.19-3.65.08-2.23,2-3.15,2.13-5,.62a6.33,6.33,0,0,1-2.23-4.08c0-1.56-1.19-1-4,1.73-3.39,3.39-3.91,5-3.65,11.6,1,25.52,4.66,36.23,4.66,13.68Zm83.94-8.84c0-3.16-.41-6.09-.84-6.52-2.11-2.11-2.92,3.22-2.32,15.21l.66,13.23,1.28-8.09a104.24,104.24,0,0,0,1.22-13.83Zm104.76,16.78c-.42-1.62-1-3-1.33-3s-.56,1.33-.56,3,.6,2.94,1.33,2.94S579.61,1004.73,579.18,1003.12ZM442,999.71a6.74,6.74,0,0,0-2.94-5.08c-2.43-1.52-2.94-1.47-2.94.3a3.9,3.9,0,0,0,1.47,3c.81.5,1.47,2.23,1.47,3.85s.66,2.53,1.47,2,1.47-2.36,1.47-4.15Zm48.54,1.93c0-.8-.29-1.47-.64-1.47s-1.06.67-1.56,1.47-.21,1.48.65,1.48A1.52,1.52,0,0,0,490.5,1001.64ZM316.94,990.37c0-12.41-2.05-13.63-2.46-1.47-.25,7.36.52,12.74,1.82,12.74C316.65,1001.64,316.94,996.57,316.94,990.37Zm46.57,6.49c-.41-1-.74-.18-.74,1.84s.33,2.85.74,1.84A5.66,5.66,0,0,0,363.51,996.86Zm165.24-2.57a1.47,1.47,0,1,0-1.47,1.47A1.47,1.47,0,0,0,528.75,994.29Zm73.08-4.69c-.47-1.17-.82-.82-.89.89-.07,1.55.28,2.42.77,1.93a3,3,0,0,0,.12-2.82Zm-5.53-5.24c-.08-4.42-.35-4.93-1.36-2.57-1.76,4.08-1.76,8.09,0,8.09C595.75,989.88,596.36,987.4,596.3,984.36Zm-97.93,1.78c-.48-1.25-1.19-2-1.58-1.57s-.26,1.4.27,2.27c1.45,2.34,2.3,1.89,1.31-.7Zm104.69-8.77c-.56-9.28-.69-9.78-2.18-8.86-.78.49-1.16,4.66-.85,9.28.71,10.56.64,10.31,2.13,7.67C602.85,984.25,603.26,980.61,603.06,977.37Zm-226.61,5.25a1.55,1.55,0,0,0-.41-2.14c-.68-.42-1.25.19-1.25,1.37C374.79,984.33,375.26,984.55,376.45,982.62Zm152.3-1.86c0-2.38-.44-2.8-1.64-1.6a2.83,2.83,0,0,0-.65,3.23c1.52,2.47,2.29,1.92,2.29-1.63ZM572.87,975c0-2.56-.61-4-1.47-3.5s-1.47,2.9-1.47,5.32c0,2.57.62,4,1.47,3.51S572.87,977.42,572.87,975Zm34.85-2.4c-.37-1.41-.67-.25-.67,2.58s.3,4,.67,2.57A12.09,12.09,0,0,0,607.72,972.59Zm-109.55,1.14c.35-2.41.1-5.22-.55-6.25s-1.2.63-1.21,4.38C496.38,979.12,497.24,980,498.17,973.73ZM365,971.86c-.41-1-.74-.19-.74,1.84s.33,2.85.74,1.84A5.66,5.66,0,0,0,365,971.86Zm231-2.93c-.35-1.83-.66-.67-.67,2.56s.27,4.73.64,3.33a16.11,16.11,0,0,0,0-5.89Zm-149.62-1.2a10.41,10.41,0,0,0-2-5c-1.8-2.46-2-2.16-1.68,3,.18,3.17.43,6.42.55,7.23.33,2.13,3.08-2.51,3.11-5.23Zm-73,.82c.46-1.21.2-2.21-.58-2.21s-1.43,1-1.43,2.21.26,2.21.58,2.21,1-1,1.43-2.21Zm-8.39-4c-.41-1-.74-.18-.74,1.84s.33,2.85.74,1.84A5.66,5.66,0,0,0,365,964.5Zm-26-3.15a3.49,3.49,0,0,1,2.21-2.89c1.56-.6,2.21-3,2.21-8.39,0-6.3.48-7.66,2.94-8.31,1.62-.42,2.94-1.26,2.94-1.86s2.67-3,5.94-5.22,5.39-4.67,4.71-5.34-5.29-1.65-10.27-2.17c-8.77-.91-9.08-.83-10,2.74a19.26,19.26,0,0,0-.64,5.71,84,84,0,0,1,.11,8.46c-.16,5.66-.53,6.34-3.12,5.66s-2.94,0-2.94,5.46c0,3.43.44,6.68,1,7.22,1.74,1.74,4.9,1.05,4.9-1.07Zm55.9-6.21c0-3.06-.6-4.78-1.47-4.24S392,954.12,392,957c0,3,.6,4.77,1.48,4.23S394.9,958,394.9,955.14Zm-21.06.63c-.47-1.17-.82-.82-.89.89-.06,1.55.28,2.42.77,1.93a3,3,0,0,0,.12-2.82Zm70.64-8.9c-.36-1.83-.66-.68-.67,2.56s.27,4.73.64,3.32a16.27,16.27,0,0,0,0-5.88ZM612,952a11.54,11.54,0,0,0,2-5.88c0-3-.64-3.31-7.38-3.31-6,0-8.06-.69-10.84-3.69-3.11-3.35-4.8-3.76-18.68-4.49-8.4-.44-20.23-1.38-26.3-2.09-22.72-2.65-36.25-4.51-43.39-5.94-11.06-2.23-34.16-4.61-44.13-4.54-7.94.05-13.1-1-28.2-5.82-4.46-1.42-7.66-1.76-32.84-3.5-23-1.59-30.33-2.64-36-5.2-11.38-5.11-22.45-7.48-26.45-5.66-2.42,1.1-4.42.94-7.54-.63-6-3-24.82-3.11-27.75-.18-2.5,2.49-3,7.28-.87,8.58a40.27,40.27,0,0,0,7.73,2.14c26.14,5.3,38.9,7.58,49.74,8.9,6.87.84,17.13,2.55,22.79,3.81s15.6,2.83,22.07,3.51,25.33,3.53,41.92,6.35,32.65,4.8,35.7,4.41c3.67-.46,7.93.32,12.52,2.29,5.33,2.29,11.8,3.24,27.54,4,11.32.56,21.91,1.23,23.52,1.48s12.54,1.52,24.27,2.83,24.31,2.91,28,3.57C609.44,954.8,609.92,954.76,612,952Zm23.86-1.24a19,19,0,0,1,7.06-2.06c3.2,0,6.36-2.77,7.06-6.19,1.7-8.26,6-9.67,4.76-1.54l-.87,5.52,2.88-3.68c2.67-3.4,5.92-11.85,5-13-.22-.27-5.36,1.22-11.43,3.31s-12.36,3.81-14,3.81c-3.26,0-5.22,4.1-3.77,7.88.51,1.34.2,2.41-.7,2.41s-1.63-1-1.63-2.2c0-2.35-4-2.93-7-1-1,.63-2.25,3.34-2.79,6l-1,4.88,6.22-1a42.15,42.15,0,0,0,10.14-3.1Zm7.61-6.36c0-2.74,1.81-6,2.95-5.26,1.5.93.08,6.61-1.65,6.61A1.33,1.33,0,0,1,643.48,944.4ZM373.84,947c-.47-1.18-.82-.83-.89.88-.06,1.55.28,2.42.77,1.93a3,3,0,0,0,.12-2.81Zm-6.48-15.67c1.36-1.63,1.17-1.94-.9-1.51-1.44.29-2.57,1-2.53,1.64s.2,4.58.34,8.82l.27,7.73.56-7.32c.31-4,1.33-8.24,2.26-9.36Zm6.77,6.75c-.16-5.74-.26-5.89-1.2-1.84-.56,2.43-.74,5.24-.4,6.25C373.7,945.93,374.3,944.26,374.13,938ZM670,932.26c0-2.59-.78-4.16-2.07-4.16s-1.8,1-1.29,2.95a6.31,6.31,0,0,1-.65,4.78,20.76,20.76,0,0,0-2.46,4.74c-.92,2.56-.6,2.49,2.71-.63A11.26,11.26,0,0,0,670,932.26ZM334.59,938.4a1.47,1.47,0,1,0-1.47,1.47A1.47,1.47,0,0,0,334.59,938.4Zm345.12-4c4.07-5.32,5.77-10.66,3.4-10.66-3.16,0-5.8,2.08-5.8,4.57,0,1.53-.59,2.78-1.31,2.78s-1.59,2-2,4.41c-.86,5.84.55,5.57,5.66-1.1ZM691.05,931c2.94-5,6.12-5.93,5-1.47s2.34,3.59,6.08-1.47,6.78-5.87,5.38-1.47c-.7,2.21-.27,2.93,1.74,2.89,3.93-.07,7.49-3.27,8.62-7.76.54-2.18,1.66-4,2.47-4s1.14,1.33.72,3c-.64,2.43,0,2.94,3.4,2.94,3,0,5.1-1.3,7.46-4.61,3-4.18,3.46-4.38,5.1-2.13s2.3,2.32,9.27,0c4.09-1.34,8.21-3.36,9.15-4.49a6.68,6.68,0,0,1,4.54-2c4.08,0,11-3.88,12.12-6.81.73-1.91,1.37-2.1,2.68-.79,2.49,2.49,3.52,2.18,7.72-2.33,2.95-3.16,4-3.61,5-2,1.77,2.84,7,.81,8-3.12.67-2.57,1.22-2.86,2.65-1.42,2.56,2.55,5.29,2.25,8.73-.95a11.36,11.36,0,0,1,6.6-2.76,10.8,10.8,0,0,0,6.29-2.39,12.46,12.46,0,0,1,7.22-2.39c2.68,0,5.38-1.08,6.5-2.6s5.6-3.36,10.29-4.32c9.81-2,15.91-5.58,15.91-9.34s2.49-4.86,4.24-1.79c1.38,2.41,1.78,2.32,5.32-1.18s3.65-4.21,2-7.73c-1.53-3.36-2.69-3.92-8.09-3.92-3.46,0-6.68.62-7.15,1.38-1.81,2.93-31.49,15.74-44.91,19.38-3.64,1-7.25,2.34-8,3a6.76,6.76,0,0,1-3.82,1.22c-1.34,0-6.67,2.23-11.84,5-9.28,4.89-35,15.62-37.55,15.65-.71,0-4.6,1.64-8.64,3.63s-8.3,3.64-9.46,3.66-4.81,1.29-8.09,2.8a117,117,0,0,1-14.07,5c-21,5.91-21.35,6.08-21,9.38a6.29,6.29,0,0,1-1.84,4.94,6,6,0,0,0-2.16,3.82c0,3.55,3.69,2.17,6.39-2.39Zm-53.76-2.42c5.42-1.33,10.53-2.93,11.33-3.54s4.12-1.61,7.36-2.19a45.29,45.29,0,0,0,9.56-2.87,44.7,44.7,0,0,1,10.26-2.82c6.39-1,46.31-13.86,55.19-17.81,2.43-1.08,9.36-3.7,15.41-5.83s13.33-4.9,16.18-6.15,6.51-2.78,8.13-3.4,5.92-2.52,9.56-4.22a69.1,69.1,0,0,1,11-4.06,20,20,0,0,0,6.08-2.29c.92-.72,9.85-4,19.86-7.18s19.51-6.51,21.13-7.3,5.89-2.46,9.5-3.7c11.42-3.94,11-8.06-1.78-17.78-10.35-7.87-17.52-10.7-30.15-11.9-7.78-.73-9.2-.51-9.2,1.47a4,4,0,0,0,1.31,3.13c3.1,1.92,2.64,10.55-1,18.17s-3.8,7.82-23,17.1c-10.61,5.14-21.61,9.84-24.44,10.44A93.52,93.52,0,0,0,747.17,880a80.61,80.61,0,0,1-14,4.08c-3.64.6-10.59,1.84-15.44,2.75-29,5.45-109.94,8.45-150,5.57-7.29-.53-28.47-1.39-47.07-1.92s-34.59-1.57-35.52-2.31-3.91-1.29-6.62-1.24c-16.85.33-45.85-2.9-56.55-6.3a138.51,138.51,0,0,0-19.72-3.87c-14.67-1.84-16.6-3.43-19.17-15.79-1.66-8-1.6-8.35,2.11-11.78,2.1-1.95,3.82-3.82,3.82-4.15s-3.14.38-7,1.59-11.39,3.16-16.77,4.33c-12.67,2.76-14.42,3.33-26.48,8.62-2.95,1.3-6.59,2.37-8.09,2.38-4.15,0-19.84,9.25-23.05,13.56-4.86,6.51-2.57,10.6,7.54,13.43a72.16,72.16,0,0,0,16.17,2.41c9.22,0,30.39,4,36,6.88,4.31,2.18,17,4.24,34.15,5.54,22,1.67,35.62,3.52,43.39,5.88,4.45,1.34,14.37,3.07,22.06,3.84,24.32,2.42,55.43,7.38,58.61,9.34.59.36,13.29,2.05,28.22,3.74,21.9,2.48,30.7,2.85,45.43,1.91,13.91-.89,18.65-.74,19.86.65,2.17,2.48,6.57,2.36,18.2-.49ZM291.12,912.48c1.67-.64,1.92-1.43.87-2.7s-.9-4.11.35-9a59.64,59.64,0,0,0,1.33-15.32l-.52-8.09-10.38-5.88c-15.52-8.8-36.43-33.15-36.43-42.42,0-1.14-1.71-5.13-3.81-8.87-4.38-7.85-9.39-26.82-9.41-35.67,0-7.14,3.85-30.89,5.73-35.12.72-1.62,2.12-5.1,3.1-7.72s2.22-4.8,2.73-4.82,2.9-3,5.31-6.57,6.72-7.72,9.56-9.16,5.7-3.45,6.35-4.46c2-3.06,3.74-2.12,7.87,4.11,2.16,3.28,4.32,5.43,4.8,4.78,1.42-1.92,10.2-7.79,11.65-7.79.75,0,2.23-1,3.3-2.34,1.76-2.12,2.1-2.11,3.8.21,2.42,3.31,9.64,2.34,28.25-3.8,16.44-5.42,28.89-6.4,31.76-2.48,1.72,2.35,2,2.37,2.83.25,1.45-3.8,1-34.18-.64-47.77-.89-7.14-2.48-13.4-3.73-14.67-4.05-4.1-64.63-2.39-78.93,2.22-4.65,1.5-8.46,3.14-8.46,3.64,0,1,13.67-.58,18.75-2.2,4.65-1.49,4.31,1.92-.36,3.7-2,.76-3.68,1.75-3.68,2.19s1.65.39,3.68-.12c4.56-1.14,4.69.28.36,3.89-1.82,1.52-2.57,2.78-1.66,2.81s3.41,1.45,5.59,3.16c3.76,3,3.83,3.25,1.44,5.88s-2.35,2.78.91,2.78h3.43l-3.45,3.67c-2.07,2.21-2.7,3.68-1.56,3.68s1.65,1.3,1.19,3.72.09,4.16,1.46,4.93c3.29,1.84,1,10.32-3.24,11.92-4,1.52-6.49,6.27-2.56,4.87a18.7,18.7,0,0,0,4.21-2.2c2.47-1.91,4.06,1.45,1.91,4-1,1.18-2.41,2.14-3.2,2.14s-2.52,1.32-3.86,2.93c-2.23,2.68-2.93,2.76-7.93,1-7.33-2.57-7.95-3.42-4.89-6.79,2.5-2.77,2.37-3.15-3.81-11.09-5.51-7.08-6.92-8.11-10.08-7.32a17.22,17.22,0,0,0-5.66,2.56c-1.09.91-4.74,1.46-8.1,1.23-4.94-.34-5.75-.06-4.26,1.47,2.8,2.87,2.21,4.23-1.84,4.23s-4.95,2.14-1.47,3.48c2.77,1.06,2.91,5.35.17,5.35-1.12,0-2.4,1.41-2.86,3.14-.68,2.62-1.56,3-5.32,2.24-2.55-.51-4.49-.28-4.49.54s1,1.43,2.32,1.43,2.05.83,1.7,1.84-2.5,1.66-5.09,1.4c-3-.29-4.74.33-5.32,1.84a4.32,4.32,0,0,1-3.86,2.28c-3.54,0-4,2.25-.69,3.51,3.51,1.34,1,3.84-3.86,3.84-4.58,0-5.83,2-2.12,3.48s2.55,3.34-2.57,5L203,741l4.83,1.11c5.93,1.35,5.47,3.58-1.25,6-4.75,1.73-4.85,1.9-1.69,2.86,5.18,1.56,3,4.24-4.1,5.06-7.76.89-9.51,3.82-2.28,3.82,9.58,0,8.5,5-1.19,5.46-2.94.15-5.35.7-5.35,1.21,0,1.17,5.56,2.7,9.92,2.72s4.23,2.15,0,5.09c-1.8,1.26-2.46,2.29-1.47,2.29a2,2,0,0,1,1.8,2.15c0,2.44-5,5.55-7.78,4.9a1.68,1.68,0,0,0-2.16,1c-.15.8,1.69,1.24,4.09,1,3.52-.37,4.38.11,4.38,2.41,0,2-1.42,3.21-4.78,4l-4.78,1.15,5.56.87q9.51,1.5,2.37,5.11c-5.35,2.69-5.22,5.43.24,5,5.61-.46,7.63,2.77,2.53,4a10.16,10.16,0,0,0-5.34,3.85c-1.67,2.68-1.52,2.95,1.54,2.7,9.52-.79,11.63,1.83,4,5-3.87,1.63-4.18,2.15-2.27,3.74,1.22,1,2.78,1.5,3.46,1.08a3.57,3.57,0,0,1,3.21.45c1.55,1,1.33,1.75-1.05,3.79-3.77,3.23-2.66,6.56,2.19,6.56,2.93,0,3.46.53,2.62,2.58-2.22,5.43-1.61,7,2.58,6.56,4.63-.48,5.26,1.79,1.61,5.82-2,2.17-2,2.74-.36,2.92,1.13.12,2.73.38,3.53.56a31.21,31.21,0,0,0,3.48.52c1.59.13,1.5,1-.46,3.94-3.21,4.89-.76,8.86,3.92,6.35,4.45-2.38,6.86.71,3.48,4.46s-2.08,5.68,3.32,4.89c4.94-.73,7.21,1.71,4.57,4.9-2.29,2.75-.75,4.31,4.26,4.31,3.39,0,3.85.54,3.49,4-.45,4.26,2.1,5.45,5.15,2.41,1.9-1.9,5.32-.34,4,1.82-.49.8-.48,3.13,0,5.18.89,3.55,1.1,3.61,4.41,1.44,3-2,3.73-2,5.22-.19.95,1.14,1.3,2.78.78,3.62-1,1.55.81,2.08,5.39,1.63,1.36-.14,3.19,1.09,4.06,2.72,1,1.81,2.47,2.62,3.85,2.09s3.51.46,5.19,2.26c3,3.24,5.28,3.78,9.34,2.22Zm314.11-25.35c0-1.53-26.68-4.52-39.34-4.4-22.54.2.66,4.79,27.21,5.38C599.77,888.26,605.23,887.82,605.23,887.13Zm14.34-1.23a12,12,0,0,0-5.14,0c-1.42.37-.26.67,2.57.67S621,886.27,619.57,885.9Zm62.15-1.36,17.65-1.3c8.12-.63,40.29-6.88,41.92-8.15.81-.63,4.1-1.64,7.3-2.24,8.28-1.55,41.83-16.74,47.86-21.67,3.44-2.82,8.82-11,8.82-13.39,0-3.86-3-4.19-6-.65-7.48,8.94-12.87,14.1-19,18.23-7.4,5-29.5,12.4-47.79,16.11-6.47,1.32-13.75,3-16.18,3.7-5.66,1.68-34.34,5.9-44.86,6.59-4.45.29-16.24,1-26.2,1.59S628,884.94,629,885.58c1.9,1.18,29.7.63,52.73-1Zm-130-9.09c-2.32-.29-4.8,0-5.51.76s1.06,1,4.22.53c5.08-.71,5.18-.81,1.29-1.29Zm121.9-.87c38.32-4.07,48.35-5.41,49.94-6.67a17,17,0,0,1,5.95-1.93c9.42-1.52,31.14-8.77,40.89-13.65,17.57-8.79,25.93-18.74,22.82-27.16-1.24-3.36-3.66-5.84-5.74-5.89-.48,0-.92,2.87-1,6.4a29.3,29.3,0,0,1-2.42,10.92c-2.55,4.94-9.61,10.6-13.21,10.6-2.11,0-10.79,3.51-20,8.11-11.34,5.63-49.11,12.26-64.44,11.3-2.67-.16-6,.29-7.35,1S669,869.4,659.66,870s-20.56,1.34-25,1.69L617.74,873c-4.86.38-16.11,1-25,1.32-22.78.88-24.57,1.12-16.91,2.27,11.51,1.74,74.86.43,97.81-2Zm-133.85.57c-4-1.74-6.37-1.74-3.68,0a9.05,9.05,0,0,0,4.41,1.34C542,876.44,541.72,876,539.78,875.15Zm-33.1-1.47a14.85,14.85,0,0,0-6.62-1.43c-3.38,0-3.89.33-2.2,1.43a15,15,0,0,0,6.62,1.42C507.86,875.1,508.38,874.77,506.68,873.68Zm25.4.5a8.47,8.47,0,0,0-4.41,0c-1.43.37-.61.7,1.81.73S533.08,874.59,532.08,874.18Zm-103.35-1.66c0-.64-5.46-3.79-12.14-7-9.7-4.66-12.66-6.86-14.74-11-2.7-5.32-4.49-5.74-8.63-2-2.62,2.36-2.17,6.47,1.3,11.86,1.47,2.27,4.15,3.52,9,4.16a83.11,83.11,0,0,1,12.74,2.9C423,873.73,428.73,874.21,428.73,872.52Zm53.68-.31c-.5-.81-3-1.43-5.6-1.37-3.95.09-4.23.3-1.75,1.37C479.17,874,483.5,874,482.41,872.21ZM325,854.86c14.75-5.3,23.91-7.65,56.63-14.54,6.07-1.28,12.95-2.9,15.29-3.61a39.23,39.23,0,0,1,9.29-1.28c4.55,0,12.51-2.61,24.69-8.09a218.36,218.36,0,0,1,22.8-8.82,124.35,124.35,0,0,0,13.72-5.46c4.32-2.15,6.1-2.41,7.66-1.12,1.18,1,3.85,1.29,6.35.74,4-.87,15-1.65,72.08-5.1,11.61-.7,21.69-1.86,22.4-2.57s.79-4.26.17-7.87L575,790.57l-11,.07c-6,0-18.6.9-27.9,1.91-28.18,3.05-144.29,1.57-149.94-1.92-.62-.39-8.34-1.39-17.15-2.23-16.87-1.61-27.91-4.28-33.31-8.06-1.78-1.25-4.13-2.27-5.22-2.27s-4.75-1.87-8.13-4.16a60.3,60.3,0,0,0-8.72-5.11c-1.42-.51-2.57-1.62-2.57-2.45a1.79,1.79,0,0,0-2-1.52c-3.79,0-15.68-15.57-15.68-20.53a53.93,53.93,0,0,0-1.65-9.71c-1.7-6.75-4.81-8.64-6.1-3.71-.65,2.47-1.47,2.67-6.35,1.56-3.09-.69-6.7-2.7-8-4.46-1.69-2.24-3.31-2.92-5.4-2.26-7.11,2.26-17.48,19.69-19.64,33-.87,5.37-2.2,12.15-3,15.08-1.72,6.69-1.74,14.33-.07,19.83.72,2.35,2.16,7.25,3.21,10.89a52,52,0,0,0,2.86,8.09,76.5,76.5,0,0,1,3.53,8.45c4.16,11.24,14.19,27.72,19.48,32,10.4,8.4,15.12,11.76,16.5,11.76.88,0,2.67,1.64,4,3.64l2.39,3.65L302,866.4c4.75-4,11.79-7.51,23-11.54Zm125.36,12a2.94,2.94,0,0,0-2.82-.12c-1.17.47-.82.82.89.89,1.55.06,2.42-.29,1.93-.77Zm123.15-.48c.47-.75-.49-1.79-2.12-2.31-4.19-1.33-3.67-3.47,1.09-4.49,11.13-2.39,8.84-3.42-6.26-2.81-15.69.63-41.92,5.87-41.92,8.37,0,1.49.15,1.47,6.92-.92,6.43-2.27,13.77-1.54,15.59,1.53,1.37,2.33,25.31,2.89,26.7.63Zm-16.85-4.52c0-.81,1.66-1.47,3.68-1.47s3.68.66,3.68,1.47-1.66,1.47-3.68,1.47S556.69,862.72,556.69,861.91Zm46.65.93a15.31,15.31,0,0,1,6-4.51c3.2-1,4.5-5.77,2-7.31-1.68-1-7.86,4.84-6.83,6.5.45.73-.86,2.42-2.91,3.76s-3.72,3-3.72,3.74c0,2.41,2.71,1.33,5.46-2.18Zm-162.11.3c-7.77-4.29-15.42-14.13-15.47-19.91a10.77,10.77,0,0,0-1.37-4.79c-1.18-1.85-1.87-1.86-5.25-.05-5.1,2.73-9.78,9.4-8.66,12.33,1.89,4.93,21,13.6,30.75,13.94,2.94.1,2.94.1,0-1.52Zm82.08-1.94c.16-.8-.87-1.68-2.29-2-1.61-.31-2.57.41-2.57,1.92,0,2.56,4.35,2.58,4.86,0ZM480.94,859c1.15-1.86-.79-1.86-3.67,0-1.91,1.23-1.87,1.43.28,1.45A4.32,4.32,0,0,0,480.94,859Zm218.31-.84c4.27-1.27,8.7-2,9.83-1.51,2.2.84,2.89-1.38.81-2.66a34.82,34.82,0,0,0-7.35-1.74c-5.21-.84-6.11-.6-6.11,1.59s-.4,2.25-2.19.76a5,5,0,0,0-4.41-1c-2.69,1-2.94,4.82-.39,5.86a18.71,18.71,0,0,1,1.94.85c.06.07,3.6-.92,7.87-2.19Zm-236-2.1c.5-.81-.45-1.47-2.12-1.47s-3-.67-3-1.47-2.37-1.48-5.27-1.48c-3.5,0-5.07.61-4.67,1.8C449.28,856.64,461.59,858.78,463.29,856Zm276.32-3.19c4.73-1.56,10.07-3.79,11.85-5a51.72,51.72,0,0,1,10.34-4.26c7.58-2.28,15-8.24,17.14-13.78,2.29-5.9-1.88-11.56-9.76-13.24-3.7-.79-8-1.1-9.57-.7-2.74.72-2.73.9.45,5.36s4.23,13.57,2,19.3c-1.77,4.59-5.36-.27-5.1-6.89.14-3.65-.56-6.35-1.86-7.19-1.95-1.26-23.7-.82-40.33.81-4,.39-16.23,1.11-27.08,1.58-14.14.61-22.37,1.73-29.08,3.93-5.14,1.69-9.11,3.3-8.82,3.59s6.75,1.56,14.37,2.81c20.58,3.4,22.42,3.82,25.41,5.89,1.51,1,3.66,1.54,4.78,1.11,2.37-.91,22.52,3.68,25.12,5.72a3.31,3.31,0,0,1,.9,3.58c-.7,1.82.15,2,4.87,1.19a130,130,0,0,0,14.33-3.85ZM586,850.74c4.39-.41,9-1.41,10.3-2.21,4-2.56-29.32-.5-35.2,2.17C556,853,556,853,567,852.26,573.06,851.83,581.62,851.14,586,850.74Zm-127.87-3.5c7.06-.84,13.22-.77,17.11.19,4.82,1.19,7,1,10.49-.78,2.47-1.28,7.59-2.2,11.58-2.08s15.76-.6,26.28-1.59,22.76-2,27.21-2.3c11.39-.73,20.8-2.28,24.45-4s9.38.66,9.38,4.17c0,1.69.9,2.08,3.31,1.43a65.88,65.88,0,0,1,11.77-.9c4.65,0,8.46-.52,8.46-1.13s-2.48-1.1-5.52-1.1c-8.54,0-7.33-2.79,1.83-4.22,6.75-1,8.68-.85,10.85,1.1,3.52,3.2,7.11,3,9-.46.84-1.56,1.53-9.18,1.53-16.91,0-12.57-.29-14.07-2.65-14.07-3.14,0-6.18-2.73-6.18-5.55,0-2.49-8.51-15-10.2-15-.67,0-1.57,1.33-2,2.95-.77,2.92-5.46,4.23-5.46,1.52,0-2.31,4.86-11.82,6-11.82.6,0,3-1.55,5.25-3.44,3.81-3.17,14.72-6.86,20.25-6.86a2.66,2.66,0,0,1,2.46,2.58c.15,2.3.24,2.29.87-.14.58-2.25,1.6-2.55,5.93-1.73,9.68,1.81,17,14.75,17.18,30.41.11,8.84-.32,10.33-4.45,15.44-5,6.2-10.49,8.9-14.75,7.24-2.42-.94-2.09-1.59,2.84-5.57,5.85-4.71,12.07-14.95,10.56-17.39a3.68,3.68,0,0,0-2.86-1.42c-2.11,0-9.61-8.12-9.61-10.41,0-1.9-11.66-13.72-12.6-12.77-.43.42.08,1.67,1.13,2.78,3.56,3.76,10,13.93,10,15.8,0,1,1.66,4,3.68,6.68,5.08,6.66,4.62,11.32-.63,6.38-1.61-1.51-1.79-1.12-1,2.2.92,3.92-.91,5.61-2.78,2.58-3.57-5.77-4.53,2.74-2.73,24,.93,10.94,1.06,11.25,4.83,11.25,2.7,0,4.63-1.27,6.34-4.16,2.3-3.9,2.3-4.33,0-6.71s-2.35-2.67.35-4.66a13,13,0,0,1,6.62-2.12c7.3,0,17.73-16.4,17.73-27.86,0-6.2-3.2-20.07-5.71-24.77-.83-1.55-5.62-6.63-10.65-11.28l-9.13-8.46-17.77,1c-18.5,1-28.1,3.62-29.51,8-.42,1.33-2.67,3.54-5,4.92-10,5.91-9.71,38.49.47,51.84,6.36,8.34,2.46,14.77-4.83,8-3-2.79-3.64-2.89-5.85-1-4.54,4-11.81,7-12.82,5.4-.57-.93-3.42-1.17-7.21-.6-6.29.94-22.56,2.18-28,2.13-1.62,0-4.47-.09-6.34-.16a9.77,9.77,0,0,0-6,2.23c-3,2.71-7.52,3.14-7.52.7,0-1-1.58-1.34-4.24-.81-2.33.47-4.69.41-5.23-.14s-3.44-1.13-6.43-1.3L490.5,834a38.79,38.79,0,0,0-7,.8c-6.28,1.22-6.49-2.17-.37-5.79,2.43-1.43,4.41-3.22,4.41-4s-4.69,1.67-10.43,5.39c-7.35,4.75-10.89,6.28-12,5.18a3.32,3.32,0,0,0-3.91-.31c-1.29.69-7.48,1.73-13.75,2.31-11.16,1-11.4,1.15-11.4,5.06,0,2.19.44,4.43,1,5,1.29,1.29,7.53,1.15,21.08-.45ZM598.54,801c-1.85-2.82-2-4.24-.68-6.69,1.62-3,1.78-2.95,5.28,2.2,2,2.93,3.23,5.94,2.77,6.7-1.53,2.47-5,1.43-7.37-2.21Zm8.9-6.72c-.5-.81.16-1.47,1.47-1.47s2,.66,1.47,1.47-1.16,1.47-1.47,1.47S607.94,795.06,607.44,794.25Zm-210.7,49a5.66,5.66,0,0,0-3.68,0c-1,.4-.19.74,1.84.74S397.75,843.69,396.74,843.29ZM545.55,820c4.81-3.63,7.62-6.58,6.26-6.58s-4.34,2-6.66,4.41-4.81,4.44-5.53,4.46a11.47,11.47,0,0,0-4.17,2.21c-2,1.52-2.23,2.15-.73,2.12C535.88,826.55,540.76,823.57,545.55,820Zm-28.57,3c1-1.21,1.37-2.2.81-2.2s-2,1-3.23,2.2-1.57,2.21-.81,2.21S516,824.15,517,822.93Zm-3.68-5.14c1.56-2.53-3.06-1.62-6.39,1.27-1.74,1.51-3.17,3.18-3.17,3.71C503.74,824.06,512.12,819.69,513.3,817.79Zm23,0c3.57-2.58,5.1-4.41,3.69-4.41-2.33,0-13.12,8.69-10.89,8.78C529.74,822.17,533,820.21,536.33,817.78Zm147.5,0c3.69-2.79,6.9-4.12,8.83-3.65,1.67.4,2.18.34,1.13-.13-1.46-.67-1.5-1.35-.19-2.93s1.12-2.07-1.32-2.07c-1.67,0-3.48.72-4,1.6s-2.3,1.26-3.91.84c-3.48-.91-7,.25-7,2.29,0,.81,1,1.1,2.16.64,4-1.53,3.77,1.7-.32,4.76-2.23,1.66-3.39,3-2.58,3s4.08-2,7.26-4.37Zm27.58.19c7.47-4.74,9.87-7.49,6.52-7.49a4.11,4.11,0,0,0-3.18,1.56c-.53.87-3.65,3.51-6.92,5.89-7.69,5.56-5.18,5.6,3.58,0ZM564.1,816.37c4.93-4.21,5-4.36,1.51-4.41-2,0-5.11,1.38-7,3.13C551.49,821.8,556.41,823,564.1,816.37Zm-38.29-.17c0-.7-1-.89-2.21-.42s-2.21,1.41-2.21,2.11,1,.89,2.21.42,2.21-1.41,2.21-2.11ZM576.39,814c.51-1.33-.16-2.09-1.85-2.09-3.39,0-4.6,1.24-3.65,3.72s4.37,1.32,5.5-1.63ZM734,816.21c1.58-2.56-.22-3.1-2.24-.67-1.16,1.4-1.27,2.24-.3,2.24A3.47,3.47,0,0,0,734,816.21ZM631.44,796.82a4.17,4.17,0,0,0-3.78-3.78c-3.95-.56-4.36,2.28-.73,5S632,800.56,631.44,796.82ZM503,786.66c.46-.46.15-2.63-.68-4.82-1.31-3.45-1.17-3.92,1.05-3.5,1.41.28,3.43,2.31,4.5,4.52,2.39,5,9.12,5.8,9.12,1.09,0-1.62.39-2.94.87-2.94s2.56,1.32,4.61,2.94,4.62,2.94,5.7,2.94,2.66-1.32,3.53-2.94c1.27-2.37,1.12-2.94-.77-2.94-1.31,0-1.91-.71-1.36-1.59s2.43-.21,4.94,2.2c5,4.8,7.28,4.85,6.37.12s1.88-4.83,5.64-.36l2.79,3.31,2.63-3.35c2-2.58,3-3,4.37-1.61s2.3,1.28,4.17-.27c2.07-1.72,2.67-1.68,4.13.31.93,1.28,3.84,2.79,6.46,3.37,3.85.85,5,.53,5.74-1.65a29.81,29.81,0,0,1,3.68-6.2c1.48-1.93,2.69-4.74,2.69-6.25,0-2.33-1.17-2.74-7.77-2.74-4.27,0-16-1-26.1-2.31-19-2.39-39.89-1.79-39.27,1.14a2,2,0,0,1-1.38,2.17c-.95.35-1.94-.5-2.21-1.88-.44-2.26-3.76-2.56-33.59-3-18.2-.25-34.42-.68-36-1s-6.25-1-10.3-1.64c-26.08-4-42-10.68-55.64-23.43-4.49-4.2-9.14-10-10.33-13s-3.54-5.82-5.23-6.35-3.08-1.6-3.08-2.35c0-2.6-12.91-1.36-22.25,2.14a188.26,188.26,0,0,1-20.77,6c-7.59,1.68-11.4,3.21-11.4,4.58,0,1.13.68,2.06,1.51,2.06s2.15,1.69,2.93,3.76,2.1,3.36,2.91,2.86a3.29,3.29,0,0,1,3.14.12c1.11.68.52,1.91-1.76,3.63-2.89,2.17-3.14,3-1.54,4.87,1.28,1.55,3.26,2,6.17,1.43,5.08-1,5.65,1.18,1.1,4.21-4.15,2.75-2.24,6.13,2.9,5.15,6-1.16,8.25.27,5.38,3.45-2.23,2.46-2.17,2.76.8,4.35,2.44,1.31,4.2,1.3,7.39,0,4.72-2,8.6-.69,6,1.95s-1.92,5.86,1.34,4.86l5.88-1.82c2.41-.74,2.95-.23,2.95,2.79,0,4.81,3.31,6,6.47,2.31s6.19-2.82,5.6,1.28,3.66,5.46,5.68,1.69c1.13-2.11,2.56-2.78,4.73-2.21a6.48,6.48,0,0,0,5.13-.87c2.31-1.92,4.68.65,4.72,5.11a2.46,2.46,0,0,0,2.23,2.58,2.56,2.56,0,0,0,2.21-2.79c0-2.79,3.36-5.13,5-3.48a6.09,6.09,0,0,1,.88,3.5,5.22,5.22,0,0,0,2.54,4c2.05,1.15,2.89.6,4.34-2.87,1.77-4.2,4.89-5.89,4.89-2.63,0,1.17.54,1.2,1.89.08,2.37-2,4.95-.42,5.68,3.4.89,4.69,5.37,4.58,5.93-.15s4.15-6.71,4.15-2.45a11.25,11.25,0,0,0,2.16,5.64c2,2.7,2.16,2.6,2.21-1.92,0-2.63.68-4.79,1.46-4.79,1.93,0,4.22,4.72,3.41,7-.38,1.06.53,1.84,2.15,1.84,2,0,2.78-1,2.7-3.31-.14-4,3.84-4.5,4.43-.51a6.28,6.28,0,0,0,6.12,5.27c2.13,0,2.46-2.36.5-3.57-1.65-1-.31-6.71,1.58-6.71.76,0,2.07,2,2.92,4.42,1.43,4.1,2.56,5,5.25,4,.59-.2.87-1.85.63-3.67-.29-2.22.34-3.31,1.88-3.31a2.23,2.23,0,0,1,2.31,2.12c0,2.34,5.76,7,7.4,5.94.57-.35.73-2.23.36-4.18-.92-4.79,2-6.25,4.13-2.09,4.33,8.38,5.51,8.86,20.05,8.23,7.45-.33,13.92-1,14.38-1.43Zm-24.65-4.38c-2.6-1.45-3.59-7.16-1.24-7.16,1.85,0,6.24,7.07,4.9,7.9-.62.38-2.26.05-3.66-.74Zm10-2.64a1.7,1.7,0,0,1,.65-2.29c1.75-1.09,4.44.29,4.44,2.27,0,1.79-4,1.81-5.09,0Zm131.58,6.77c0-1.07-1.65-3.5-3.68-5.4-3.06-2.88-3.67-3-3.67-1,0,3.4,3.25,8.32,5.5,8.32A1.9,1.9,0,0,0,619.94,786.41Zm7.68-3.61c-2.19-5.42-6-9.4-8.55-8.91-2.24.43-1.92,1.31,2.22,6C626.45,785.78,629.35,787.11,627.62,782.8Zm10-8.32c0-.36-.66-1.06-1.47-1.56s-1.47-.21-1.47.65a1.52,1.52,0,0,0,1.47,1.55C636.93,775.12,637.59,774.83,637.59,774.48Zm311.35-64.2c6.73-3.25,11.3-8.54,12.64-14.58,1.95-8.78,2.47-10.28,4.87-14s2.4-4.13-.72-10.37c-1.78-3.58-3.86-6.88-4.6-7.34s-3.28-4.95-5.62-10-5.87-11-7.83-13.2A74.07,74.07,0,0,1,940,628.66a181,181,0,0,0-13-20.08c-4.88-6.58-10.07-14.64-11.54-17.92-2.63-5.87-2.62-6,.44-8.84,2.42-2.25,2.64-3,1-3.56-1.15-.36-4.9-2.66-8.34-5.11-6.3-4.48-7.8-7.49-4.41-8.86,1-.41.35-.79-1.47-.86-4.11-.14-4.13-1.56-.16-9.35,2.44-4.79,2.61-5.73.74-4.18-1.33,1.11-2.42,2.84-2.42,3.86s-1.06,2.73-2.37,3.81c-2,1.66-2.64,1.57-4.2-.56-1.16-1.58-3.84-2.52-7.2-2.52-4,0-5.35-.62-5.35-2.41a5.76,5.76,0,0,0-2.22-4c-1.72-1.28-1.91-2.69-.83-6.42.84-2.94.85-4.78,0-4.78s-1.37,1.25-1.37,2.78c0,4.44-10.12,5.25-14,1.12a8,8,0,0,0-6.81-2.71c-3.3.38-4.77-.9-9.93-8.63-3.33-5-6.06-10-6.06-11.11s-.66-2-1.47-2a1.72,1.72,0,0,1-1.5-1.84c0-1-1.25-3.42-2.74-5.35-1.94-2.52-3-3-3.81-1.7-1.25,2,1.32,8,5.52,12.77,1.51,1.74,2.88,4.07,3,5.19s2,4.33,4.1,7.14c4.11,5.54,8.63,14.23,8.63,16.6,0,.81-1.33.27-3-1.2s-3.43-2.19-4-1.61-.12,1.62,1,2.33c1.71,1,1.74,1.67.15,3.59-2.31,2.78-9,3.05-11.76.48-1.61-1.51-1.78-1.09-.95,2.4s.58,4.06-1.28,3.35c-1.44-.55-2.29-.06-2.29,1.33,0,3.06-4,4.3-6.67,2.07s-4.86-.61-2.42,1.84c2.69,2.68,2.15,5.63-.82,4.49-2-.76-1.71.08,1.1,3.62,2.34,2.93,4.58,4.35,6.17,3.89,3.49-1,9.2,2.9,19.93,13.58,9.78,9.74,10.94,11.62,6.26,10.14-4.23-1.35-6.22.31-4.42,3.67,3,5.67-1.66,4.58-7.42-1.71-7-7.61-7.59-6.58-1.3,2.09,6.75,9.32,7.79,9.49,16,2.62,4-3.31,7.58-5.41,8-4.65s2,1.06,3.51.68c1.81-.47,3.2.5,4.37,3.05,1.45,3.2,1.3,4-1,5.22-2.74,1.46-6.68,10.16-5.25,11.59,1,1,5.72-4.13,7-7.58.56-1.47,1.7-2.25,2.54-1.73s-.26,3.18-2.93,6.55c-4.54,5.73-5.57,9.48-3,11.05.78.48,2.78-1.8,4.44-5.06s4-5.94,5.16-5.94c2.76,0,1.42,3.55-3.25,8.58-2.48,2.68-3,4-1.69,4.48,1,.34,2.57-.53,3.42-1.93,3.53-5.86,4.86-7.11,6.49-6.1,1.24.76.88,2.24-1.25,5.23-3.29,4.62-3.64,5.92-1.59,5.92.75,0,1.81-1.39,2.35-3.09.69-2.17,1.44-2.63,2.54-1.53s1,2.25-.4,3.9c-1.75,2.12-1.55,2.17,2,.56,5.38-2.45,6.1-1.08,2.54,4.78-3.8,6.23-3.85,9-.08,4.46,2.7-3.24,7-3.24,5,0a2.17,2.17,0,0,0,1.08,2.79c1.65,1,1.69,1.82.19,4.23-2.38,3.84-2.32,5,.19,4,3.09-1.18,4.35,10.72,1.47,13.9a19.16,19.16,0,0,0-3.32,6.63c-.62,2.32-2.17,4.41-3.44,4.65-2.85.55-7.07-7.33-6-11.28.4-1.54,0-3.23-.8-3.75a2.42,2.42,0,0,1-.82-2.82c1.37-3.55-3.56-12.07-9.91-17.16-12.47-10-58.75-56.55-63.85-64.25-2.86-4.3-5.82-7.82-6.59-7.82s-1.39-.89-1.39-2S801,568.46,799.4,567s-2.95-3.23-2.95-3.92-2.58-5.06-5.74-9.7-7.33-11.42-9.28-15.06-5.2-9.27-7.23-12.51c-4.38-7-15.25-29.33-16.8-34.56a48.08,48.08,0,0,0-4.55-9.17c-1.91-3-3.46-6.45-3.46-7.63a3.76,3.76,0,0,0-1.27-2.93c-.69-.43-4.39-7.92-8.22-16.63s-9.27-20.82-12.1-26.89-5.69-12.35-6.34-14-3.17-7.25-5.61-12.51A180.19,180.19,0,0,1,708.19,381a122,122,0,0,0-6-16.49c-1.54-3-2.79-6.47-2.79-7.7s-1.58-5.71-3.52-10a91,91,0,0,1-5.15-15.6c-.91-4.31-2.35-9.16-3.21-10.76-1.64-3.06-3.11-9.9-6.52-30.34-1.11-6.69-2.66-14.3-3.45-16.91-5.47-18.3-7.93-33.66-7.3-45.64.38-7.29,1.47-13.57,2.59-14.92,1.25-1.5,1.67-4.64,1.19-8.87-.4-3.61-.35-6.93.11-7.4s1.07-2.65,1.34-4.84,2.28-5.51,4.47-7.37l4-3.39-5.88.92c-3.24.51-5.16.38-4.27-.29s2.05-3,2.6-5.26c.83-3.4,0-5.15-5.29-10.92-3.45-3.78-9.2-9.57-12.76-12.87s-7.22-6.72-8.12-7.6c-2.55-2.5-7.76-5-10.39-5-1.46,0-3.73,3-5.84,7.72-1.9,4.25-4.84,8.55-6.54,9.57s-3.08,2.79-3.08,3.93a19.61,19.61,0,0,1-2.07,6.24c-5.47,11-6.54,15.67-7.73,33.66-.58,8.92-.19,13.24,1.57,17.46,1.29,3.09,2.35,6.79,2.35,8.23s2,6.34,4.35,10.89C629,249,629.53,253.74,626,263.3c-7.24,19.8-3.15,42.75,11.34,63.56,4.71,6.75,7.74,9.59,13.48,12.6,5.25,2.76,7.8,5,10,8.86,1.66,2.93,1.31,4.85-2.79,15.11-5,12.57-4.95,11.17-1.95,41,1.3,12.91,5.94,24.84,14.74,37.84,9.88,14.6,19.77,23.8,32.18,29.91,6.58,3.23,9.94,5.91,11.57,9.22,3.13,6.33,4.14,18.36,1.66,19.76-1.54.88-1.51,2.19.16,7a38.38,38.38,0,0,1,2.08,8.46c0,1.42.68,2.58,1.49,2.58a1.65,1.65,0,0,1,1.47,1.77c0,2.88,10.49,26.59,13.46,30.42,1.49,1.92,2.72,4.32,2.72,5.32,0,3.1,26.28,24.34,36.56,29.55,5.38,2.73,10.5,5,11.38,5,4,.07,6.12,5.56,7,18.11.81,12.14,1.27,13.59,7.64,23.8,8.88,14.26,15,19.37,34.91,29.22,23.26,11.5,26.49,12.74,35.25,13.57,12.53,1.18,14,1.78,15.64,6.53,2,5.61,5.12,6.86,9.74,3.83s5.19-3,5.19.63c0,2.58.42,2.76,3.06,1.35,4.46-2.39,5.14-.65,2,5.15-1.51,2.8-2.39,5.46-2,5.89s6.68,3.78,13.87,7.42c15,7.56,21.27,8.28,31.06,3.54Zm-48.06-31.5c1-1.21,2.39-2.2,3.08-2.2s.86,1,.39,2.2a3.59,3.59,0,0,1-3.07,2.21C899.46,681,899.39,680.58,900.88,678.78Zm-51.06-96a48.41,48.41,0,0,0-4.45-6,6.57,6.57,0,0,1-1.85-3.43c0-2.47,3.56-.5,5.27,2.9a33,33,0,0,0,4.05,5.89c2.77,3.05,3.11,4.67,1,4.67-.79,0-2.61-1.82-4-4ZM834,569.2c-.5-.81.12-1.47,1.38-1.47s2.29.66,2.29,1.47a1.43,1.43,0,0,1-1.38,1.47A3.15,3.15,0,0,1,834,569.2ZM225.72,702c0-3.15-.33-3.56-1.45-1.84-1.86,2.88-1.86,5.89,0,5.89C225.08,706,225.73,704.18,225.72,702Zm754.12-36.83c4.09-3.88,7.87-8.42,8.4-10.1a15.85,15.85,0,0,1,3.87-5.69c1.6-1.44,2.91-3.25,2.91-4a25.48,25.48,0,0,1,2.09-6c11.92-26.43,14.24-57.59,5.18-69.64-1.92-2.55-2.32-5.76-1.91-15,.59-13.1,1.54-11.88-10.84-13.94-7.74-1.28-27.58-9.13-51.83-20.5-2-.94-6.58-4.51-10.2-7.95s-6.84-6.25-7.18-6.25a31.78,31.78,0,0,1-5.22-3.29c-2.53-1.8-5.28-3.36-6.11-3.45l-3.5-.39c-1.12-.13-1.63-1.18-1.15-2.41.69-1.82.35-1.89-2-.43-3.54,2.22-4.91.89-4.91-4.74s-.35-5.5-3.19,0-5.15,5.68-5.15.41v-4L886.77,491c-1.76,2.52-2.81,2.95-4.26,1.74s-2.11-1.1-2.6.3-1.47,1.18-3.82-.91c-1.75-1.55-3.16-2-3.16-1.1s-1.32,1.7-2.94,1.7-2.94-.6-2.94-1.33-1.16-1.07-2.57-.75c-2.47.56-8.71-11.3-18.83-35.8-1.42-3.43-3.47-6.25-4.56-6.25-2.82,0-2.45,5.84.71,11a84.15,84.15,0,0,1,5.37,11.77c1.49,4.05,3.42,8,4.3,8.86a23.59,23.59,0,0,1,3.42,4.72c2.35,4.16.84,16.57-2,16.57-3.06,0-2.47,8.79,1,14.43s2.57,8.24-2.42,7c-3.45-.87-3.49-.78-1.61,3.82,2.46,6.05,4.85,6.81,6.08,1.93.77-3.08,1.75-3.78,5-3.53a17.07,17.07,0,0,0,6.72-.84c1.52-.65,3.14-.53,3.67.26,1.25,1.86,6.34,4,8.68,3.59a1.48,1.48,0,0,1,1.84,1.41c0,1,1.25,1.38,2.94.94,3.57-.94,3.69.62.54,7.24-3.47,7.32-1.43,7.71,3.25.62,4-6,7.67-7.3,6.78-2.38-.36,2,.22,2.34,2.57,1.59,4-1.27,4.06,2.27.1,5.85-1.62,1.47-2.94,3.56-2.94,4.64,0,3.36,3.84,2.19,5.61-1.69s3.33-4.54,5.3-2.58a4.53,4.53,0,0,0,2.82,1.11c.94,0,1.91,1.41,2.16,3.15.33,2.31,1.21,2.95,3.31,2.4,3.47-.91,3.81,2.19.7,6.3a11.72,11.72,0,0,0-2.2,5.8c0,2.3.6,1.89,2.87-1.84,3.4-5.57,4-5.68,8.74-1.71,3.56,3,3.57,3,.9,7.68-1.48,2.58-1.8,3.86-.71,2.85,3.25-3,6.14-2.28,5,1.29-.61,1.93-.25,3.58.94,4.32,1.59,1,1.59,1.83,0,4.82-2.91,5.43-1.63,7.21,3.35,4.63,10.44-5.42,10.88-1,.56,5.59-2.87,1.84-4,3.81-4,6.81,0,4.18,3.5,7.2,5.19,4.47a3.91,3.91,0,0,1,3-1.41c1.2,0,3.6-1.32,5.33-2.94s3.7-2.94,4.36-2.94c2.46,0,1.06,4.3-2.25,6.91-3.14,2.46-6.86,7.84-6.86,9.91,0,1.28,4.1,1,4.66-.33.27-.64,3.47-3.15,7.11-5.58,10.33-6.89,10.3-6.88,10.3-4.38,0,1.27-3.33,4.69-7.39,7.61-15,10.76-13.17,17.57,1.93,7.24,10.76-7.37,11.34-7.6,11.34-4.56,0,1.17-2.82,4.14-6.26,6.61-5.94,4.27-11.27,12.48-9.34,14.41.49.49,3.37-1.09,6.41-3.53,6.82-5.47,12.11-8.35,13.24-7.21s-5.43,8.05-10.11,10.49c-3.92,2-6.46,7.37-4.18,8.78.69.42,4.51-1.23,8.48-3.68,8.26-5.08,9.11-5.29,9.11-2.24,0,1.21.61,2.21,1.36,2.21,1.71,0-2.18,8-7,14.38-4.53,6-3.53,7.46,1.77,2.55,2.19-2,4.39-3.7,4.88-3.7s3-2.39,5.62-5.31c3.09-3.47,5.09-4.72,5.77-3.61s-2.94,5.91-8.64,12c-5.32,5.65-9.68,11-9.68,11.81,0,1.57,2.71,7.23,3.46,7.23a103.52,103.52,0,0,0,7.84-7Zm-117.67-147c-6.88-11.47-8.75-17-4.57-13.55,3.39,2.82,8.18,12.85,6.6,13.83a1.45,1.45,0,0,1-2-.28Zm-4.62-19.42a1.59,1.59,0,0,1,.5-2.19c.73-.46,1.72.16,2.18,1.37C861.15,500.26,858.94,500.94,857.55,498.7ZM964.71,647c2-.92,4-2.57,4.44-3.67.91-2.37-1.45-2.66-4-.49-1,.84-3.1,2.47-4.72,3.63C956.92,649,959.59,649.3,964.71,647ZM329,638.37l20.12,0,1-8.19c1.46-11.66,6.24-16.36,38.9-38.23,6.88-4.6,15.15-10.18,18.39-12.4,10-6.85,15.57-9.21,33.83-14.38,25.12-7.11,32.71-8.92,44-10.52,5.49-.78,10.38-1.82,10.87-2.31s0-2.25-1-3.91c-2.31-3.68-1.58-4.53,4.47-5.19,3.62-.4,5.74.48,9.2,3.8,3.76,3.61,6.52,4.61,16.7,6.08,6.71,1,12.54,1.43,13,1s-1-2.57-3-4.8c-2.83-3-3.76-3.46-3.76-1.64a2.33,2.33,0,0,1-2.21,2.42c-1.21,0-2.2-.67-2.2-1.5s-1.58-1.1-3.78-.55c-2.91.73-4.76,0-8.09-3.19-6.24-6-5.67-8.09,1.94-7.23,3.44.39,23.46,1.11,44.49,1.6,52.14,1.21,54.07,1.33,69.13,4.21,7.28,1.4,16.92,3.11,21.42,3.81,11.87,1.84,50.55,11.07,61.61,14.71,8.12,2.66,9.71,2.81,11,1a8.55,8.55,0,0,1,3.46-2.73c1.39-.46.41-3.66-3.56-11.64-3-6.06-6.12-11.44-6.92-12-2.57-1.7-5.4.44-5.4,4.07,0,4.07-4.4,4.88-7.32,1.35-1-1.19-4.22-2.57-7.17-3.06s-8.88-1.86-13.17-3-13.56-2.46-20.59-2.84S647.26,532,642,531.53s-10.22-.84-11-.8-9.74.06-19.85.06-19.71,0-21.33,0c-10.82.09-24.36-1.79-23.82-3.31.7-1.94-4.07-12.18-7.47-16-2.3-2.61-9.16-3.61-9.16-1.33,0,.69,1.32,2.78,2.94,4.64s2.94,4.5,2.94,5.86,1.66,3.36,3.68,4.44,3.68,2.47,3.68,3.08c0,1.46-4.47,2.38-7.76,1.59-2-.48-2.23-1.07-.92-2.64s.68-3-2.91-6.72c-2.53-2.58-4.6-5.07-4.62-5.52a7.94,7.94,0,0,0-1.21-2.7c-.94-1.48-2.81-1.53-8.81-.25-4.24.91-7.23,2.28-6.74,3.07s2.82,1,5.19.49c3.41-.75,4.9-.23,7.18,2.49a24.89,24.89,0,0,1,3.85,6.37,10.91,10.91,0,0,0,3.21,4.55c1.58,1.16,1.73,1.92.53,2.67-1,.61-2.34-.39-3.27-2.43-1.71-3.75-7-7.74-8.41-6.34-.47.48-.07,1.65.88,2.61,1.92,1.91,2.39,7.07.64,7-1.13-.06-8.8-10.07-11.36-14.83-1.21-2.25-2.77-2.54-10.29-1.9l-8.87.75,5-2.28c2.73-1.26,11-3.32,18.38-4.58s14.42-2.81,15.64-3.44,5.18-1.23,8.82-1.35c8.37-.27,20.4-3,24.39-5.45,1.79-1.11,3.89-1.41,5-.7s3.55.61,5.49-.13a25.4,25.4,0,0,1,7.55-1.34c2.21,0,4.65-.6,5.42-1.33,1.32-1.25,6.81-2.11,23.15-3.6a48.77,48.77,0,0,0,11.51-2.49c3.59-1.49,4.28-2.46,3.5-4.94-.53-1.7-1.32-4.57-1.75-6.39-1.14-4.78-5.41-4.4-4.49.4,1,5.12-1.45,6.11-3.57,1.46-1.7-3.73-2-3.8-11.77-2.84-7.17.71-10,.51-10-.71,0-.93,2-2.1,4.46-2.59s5.15-2.17,6-3.73c1.56-2.92,1.26-3.56-5-10.68s-7.58-8.16-10.28-8.16-2.7.12.26,2.58a14.64,14.64,0,0,1,4,7.35c1,5.13-.77,6.3-3.86,2.58-2.11-2.55-2.89-2.66-5.79-.83-1.72,1.09-1.76,1.75-.24,3.59,2.88,3.47.43,6-2.88,3-1.51-1.37-3.75-2.1-5-1.62-1.45.56-3-.54-4.4-3.13s-2.19-3.21-2.23-1.51a4.24,4.24,0,0,0,1.41,3.4c1.76,1.08,2,5.15.28,5.15-.66,0-2.61-1.33-4.35-2.95s-3.78-2.94-4.53-2.94c-2.11,0-3.12,3.87-1.45,5.54,1,1,1,1.8.05,2.37s-2.25-.1-3.25-1.3c-2.59-3.13-4.27-2.72-5.84,1.4l-1.36,3.6-4.64-4.34c-4.29-4-8.16-5.81-6.91-3.22.29.6,1.75,3.75,3.25,7s3.26,7,3.93,8.39c1.3,2.66-.66,4.9-3,3.45-.75-.46-1.79-2.81-2.32-5.21-1-4.65-13.49-18.64-15.14-17-.53.54.83,4.42,3,8.64s4,8.39,4,9.29a5.9,5.9,0,0,0,2.21,3.47,6.1,6.1,0,0,1,2.2,3.85c0,4.24-2.82,1.7-8.29-7.49-6-10.06-7.68-11.55-10.85-9.59-1.55,1-1,3.14,2.69,10.43,2.55,5.07,4.26,9.59,3.81,10.05-1.12,1.11-4.94-4.05-6.81-9.2-1.26-3.48-7.83-8-9.37-6.5-.25.25,1.49,4.32,3.87,9s4,9.13,3.56,9.81c-1.43,2.3-4.34-.2-7.05-6.07-2.6-5.61-7.63-9.93-9.45-8.11-.48.47.57,3.43,2.33,6.57,3.87,6.88,3.92,7.5.63,7.49-1.42,0-3.7-2-5.08-4.41-2.81-4.94-7.06-5.9-7.06-1.58,0,1.55.65,3,1.44,3.31s1.86,2.59,2.37,5.17c.85,4.24.64,4.61-2.19,3.87-1.72-.45-4.73-2.72-6.69-5.05-4-4.77-5.22-5.24-5.22-2,0,1.21.65,2.2,1.45,2.2,1.87,0,6.15,10.18,5,12-.47.75-3.44-1.3-6.61-4.57-3.71-3.82-7.08-5.94-9.44-5.94-4.5,0-4.6,1-.53,5.37a35.5,35.5,0,0,1,4.86,6.71c1.42,2.78,2.79,3.32,7.89,3.09,7.65-.35,8.12,2,.65,3.28-3,.51-6.68,1.25-8.09,1.64s-2.58.08-2.58-.69c0-2.11-11.5-13.52-13.6-13.49a9.37,9.37,0,0,0-4,1.37c-1.76,1.12-1.44,2,1.84,5.33,3.91,3.91,4.88,6.59,3,8.42-.51.51-3.65-1.31-7-4l-6.06-5-4.85,2.51c-4.85,2.52-4.85,2.52-1.84,5.25,3.45,3.12,4,8.15.93,8.15-1.14,0-3-2-4-4.41s-2.52-4.41-3.21-4.41-6.72,3-13.4,6.61-12.95,6.62-13.95,6.62c-3.28,0-.81-3.24,5.11-6.72,3.2-1.88,10-5.93,15.05-9s12.63-7.41,16.79-9.63a78.83,78.83,0,0,0,9.89-6c1.29-1.11,6.12-3.82,10.73-6s9.11-4.89,10-5.94,3.71-2.76,6.31-3.81a95.31,95.31,0,0,0,13.11-7.51c4.61-3.09,9-5.61,9.67-5.61s3.89-2,7.07-4.37,6.48-4.39,7.35-4.42,4.17-2.25,7.35-5a62.21,62.21,0,0,1,11.3-7.52c3-1.43,5.51-3.19,5.51-3.91s1.06-1.3,2.35-1.3,4.27-1.13,6.62-2.52c4.28-2.53,5.45-6,2.91-8.58-.74-.77-1.57-3.39-1.83-5.81-.41-3.76-1-4.34-4.13-3.9-2,.28-5.53,2.1-7.83,4s-4.84,3.53-5.63,3.53-6.46,3.31-12.6,7.36-11.56,7.37-12,7.38-2.56,1.33-4.58,2.91-4.67,2.9-5.88,2.92c-3.12.07-6.5,7.56-4.08,9.06,1.3.8,1.09,1.37-.76,2.08a5.3,5.3,0,0,1-4.74-.83c-1.77-1.48-2.19-1.39-2.19.43,0,1.5-.95,2-2.84,1.5-2.3-.6-2.69-.15-2,2.35.61,2.31.12,3.1-1.93,3.13a11.59,11.59,0,0,0-5.6,2.21,11.12,11.12,0,0,1-5.52,2.16c-1.46,0-2.66.66-2.66,1.47s1,1.47,2.12,1.47c2.64,0,4.25,2.43,3,4.48-.65,1.06-1.61,1-3-.18-1.64-1.36-2.07-1.2-2.07.78,0,1.82-1.09,2.41-4,2.17a21.32,21.32,0,0,0-8.18,1.36c-5.1,2.08-7.91,2.14-9.1.22a3.34,3.34,0,0,0-2.52-1.48c-.89,0-.45,1.29,1,2.85,4.18,4.63,1.37,6.2-4.74,2.66-6.61-3.83-7.86-5.44-6.81-8.81,1.16-3.73-1.06-3.19-8.24,2l-6.35,4.59,3.36,2.53c2.83,2.14,3.09,3,1.68,5.66s-2.3,2.88-5.32,1.73c-4.39-1.67-4.74,0-.75,3.66,3.08,2.78,2.57,5.9-.75,4.63a1.83,1.83,0,0,0-2.5.84c-.64,1.93-7-1.06-7-3.29,0-.78-1.35-1.41-3-1.41-2.9,0-2.87.19.72,4.91,2.06,2.7,3.31,5.34,2.78,5.88-2.07,2.07-5,.81-6.37-2.7-.77-2-2.08-3.68-2.91-3.68-2.46,0-1.74,1.79,2.46,6.18s3.71,6-2,7.68a5.49,5.49,0,0,1-5.59-1.48c-1.33-1.34-2.87-2-3.42-1.45s0,1.59,1.13,2.31,1.64,1.79,1,2.39-3-.37-5.42-2.13c-6.14-4.54-6.87-4-2.42,1.84s4.67,6.72,1.55,6.72c-1.64,0-2,.86-1.38,2.94,1.13,3.54-1.6,3.86-5.79.69-3.44-2.6-6.57-2.9-4.06-.39a5.82,5.82,0,0,1,1.76,2.94c0,2.39-3.42,1.06-8.31-3.24-5.95-5.22-10.76-6.2-7.48-1.52a35.47,35.47,0,0,0,6,6c2.18,1.71,3.58,3.72,3.12,4.47-1.33,2.16-2.85,1.63-8.75-3.06-7-5.57-9.91-5.75-4.69-.29,7.45,7.77,4.26,10.4-3.91,3.23-2.76-2.43-5.77-4.41-6.67-4.41-3.32,0-1.52,4.62,2.76,7s5.63,5.26,3.12,6.81c-.71.44-2.86-.4-4.78-1.87-4.49-3.44-8.63-4.94-8.63-3.12a1.43,1.43,0,0,0,1.42,1.42c1.76,0,5,5.83,3.88,7-.46.45-3.45-1-6.66-3.21-8-5.55-10.67-3.37-3.5,2.85,8.39,7.29,3.86,8.8-5.73,1.91-4.46-3.2-4.76.21-.43,4.74,3.42,3.56,3.73,4.39,1.64,4.39a13.81,13.81,0,0,1-5.42-1.52c-3.49-1.87-3.68-.36-.41,3.25s1.35,5.11-4.33,3l-4.73-1.73,5,4.15c5.31,4.4,4.42,7.13-1.7,5.25l-3.3-1,3.38,3c4.9,4.33,1.66,5.22-6.83,1.87-8-3.15-9.47-2.58-11.22,4.38-.81,3.25-.27,4,4.3,5.6,6.41,2.32,7.41,7,1.18,5.46-2.23-.54-4.78-1.94-5.68-3.11-2.29-3-5-2.64-5,.62,0,1.59,2.56,4.45,6.08,6.78,7.25,4.8,5.29,7.76-2.88,4.35-7.51-3.14-9.12-2.48-2.84,1.16,7.16,4.15,7,6.15-.36,5.16-6.94-.93-8.82.73-3.55,3.13,4.63,2.12,3.58,4.13-2.24,4.3a18.57,18.57,0,0,0-7,1.58c-2.3,1.29-2.15,1.57,1.37,2.45a12.59,12.59,0,0,1,5.67,3.06c1.42,1.7.79,2.06-3.62,2.06-2.93,0-5.32.66-5.32,1.47s1.28,1.47,2.85,1.47c4.16,0,5.06,2.54,1.56,4.42-4.66,2.49-2.14,4.25,4,2.82,3-.71,14.57-1.3,25.64-1.32Zm-9.29-48.47c-2.73-2.23-3.09-3.23-1.7-4.65s3-1,7.73,2.13c3.26,2.16,5.94,4.25,5.94,4.64C331.65,594,322.72,592.39,319.68,589.9Zm162.73-42.76c-1.58-2.56.77-4.75,3.06-2.85,1.13.94,1.7,2.3,1.25,3-1.07,1.73-3.18,1.65-4.31-.17Zm14.88-11.88c-2-3.36-2.26-5-1.05-6.21,2.16-2.16,5.78,1.35,6.35,6.17C503.21,540.43,500.36,540.45,497.29,535.26ZM414,537a3.22,3.22,0,0,1,1.47-2.38c.81-.5,1.47-.25,1.47.56a3.22,3.22,0,0,1-1.47,2.38C414.68,538.08,414,537.83,414,537Zm95.12-7.84c-6.31-7.24-6.61-8.51-2-8.51,2.37,0,4.87,2,8.09,6.49,5.42,7.55,5.58,8.21,2,8.21C515.74,535.37,512.1,532.59,509.14,529.18Zm11.79-2.34c-4.22-4.41-5.12-7.66-2.11-7.62,2.69,0,4.85,1.76,6.76,5.39C529.36,531.78,526.83,533,520.93,526.84Zm-78.39-32.62a7.86,7.86,0,0,1-4-3.58c-1.27-3.31,3.8-3.05,6.87.36C449.5,495.51,448.51,496.63,442.54,494.22Zm153.2-14.63c-.87-1.4,9.32-3.72,10.62-2.41s.18,1.77-5.12,2.78c-2.59.49-5.07.33-5.5-.37Zm-30-39.82c0-2,.34-2.85.74-1.84a5.66,5.66,0,0,1,0,3.68C566.09,442.62,565.75,441.79,565.75,439.77Zm221.87,187c0-.71-.94-2.07-2.09-3-1.71-1.42-1.95-1.19-1.3,1.29C785,628,787.62,629.31,787.62,626.75Zm-16.93-17c-1.32-4.53-3-8.24-3.66-8.24s-1.56-1.15-1.93-2.57c-.44-1.68-.73-1.25-.84,1.25a21.24,21.24,0,0,0,2.19,8.55c1.3,2.6,2,6.36,1.67,8.35-.45,2.35.14,4.09,1.68,5,3.46,2,3.77-2.38.89-12.31Zm-5.48,6.11c-1.3-1-3.51-6.48-4.9-12.14-3.31-13.48-7.38-22.8-9.95-22.8-1.6,0-1.82,1.31-1,5.86.59,3.22,1.86,6.8,2.82,8,1.27,1.53,1.3,2.38.1,3.11-2,1.25-1.83,1.5-5-7-3.36-9.07-7.68-14.38-9.47-11.66-1,1.52-2,1.11-4.29-1.84-5.93-7.54-6.34-3.28-1.11,11.54,3.5,9.93,7.13,15.54,8.91,13.76.49-.49-.07-2.76-1.23-5.06s-1.81-5-1.44-6.07a4.9,4.9,0,0,0-1.15-4.08c-1-1.21-1.39-2.62-.87-3.14s1.16-.67,1.42-.33c1.64,2.08,6.88,13.51,6.88,15,0,3,7.43,10.85,8.3,8.78,1.49-3.57,4.52-1.77,6.8,4,1.48,3.78,3.24,5.88,4.92,5.88,2.37,0,2.39-.16.22-1.83Zm10.06-11c-1.49-1.49-2.73.76-1.5,2.75.93,1.49,1.27,1.5,1.77,0a3,3,0,0,0-.27-2.75Zm89.4,1.74c.5-1.31.26-1.9-.58-1.39a3.13,3.13,0,0,0-1.45,2.28C862.64,609.65,863.69,609.18,864.67,606.64Zm-79-6.82c-.47-1.18-.82-.83-.89.89-.07,1.55.28,2.42.77,1.93a3,3,0,0,0,.12-2.82Zm-58.26-13.77c-1.71-7.64-8.84-17.86-10-14.35-.63,1.88,6.4,20.57,8.94,23.77S729.38,594.78,727.43,586.05Zm35.37,5.7c-1.74-3-2.16-2-.74,1.67.51,1.31,1.23,2.08,1.61,1.7s0-1.9-.87-3.37Zm-44.33-1.59a9.34,9.34,0,0,0-1.47-3.3c-1.29-2-1.61-2-2.9,0-2.17,3.3-1.81,4.41,1.45,4.41,1.62,0,2.93-.5,2.92-1.11ZM710,587.35a3.47,3.47,0,0,1-1.84-3c0-3.77-7.81-18-9.86-18a1.82,1.82,0,0,1-1.9-1.71c0-.95-.36-1.36-.81-.92s.69,3.87,2.5,7.6c2.5,5.13,2.89,7.22,1.61,8.5s-2.15.64-3.55-2.58a58.19,58.19,0,0,0-5-8.68,38.35,38.35,0,0,1-4-7c-1.24-3.52-5.41-3.27-5.41.32,0,4.12,4.48,13.11,9,18.13,3,3.27,4.65,4,7.11,3.26,2.31-.73,4.06-.14,6.11,2,1.58,1.7,4,3,5.39,3s1.79-.41.67-.86Zm119.63-3.2c-3.14-.61-4.42.5-3.08,2.68.73,1.18,1.67,1.1,3.32-.27C832,584.84,832,584.6,829.66,584.15Zm-116.88-7.08c-1.64-3.11-3-4.8-3-3.75-.09,2.55,4.37,11.07,5.3,10.13C715.43,583.05,714.42,580.18,712.78,577.07Zm-28.49.38c-1.13-1.13-3.2-5.05-4.6-8.71s-4.16-7.71-6.14-9c-4.43-2.9-4.44-2.54-.2,6.17,5.26,10.8,7.38,13.6,10.3,13.6C686,579.5,686.05,579.2,684.29,577.45Zm-12.87-4.64c0-2-4.38-9-7.2-11.56-3.49-3.16-4-1.49-1.27,4.58,2.3,5.19,8.47,10.28,8.47,7Zm-13.26-3.24c0-.6-1.52-3.74-3.35-7-3.8-6.72-8.69-9-7.34-3.41C648.65,564.09,658.24,573.4,658.16,569.57Zm-11.26-3.92a2.26,2.26,0,0,0-1.31-2.9,3.34,3.34,0,0,1-2.11-2.78c0-2.59-8.5-10.71-9.82-9.39-.56.56-.24,1.81.72,2.76a6.84,6.84,0,0,1,1.74,4.19c0,3.18,5.53,10.2,8,10.2a3.28,3.28,0,0,0,2.74-2.08Zm-13.72-3.82c0-2.62-6.55-11.71-8.46-11.73-2.33,0-2.32,0,.62,6C628.44,562.42,633.18,565.88,633.18,561.83Zm-12.83-2.55c-1-2.6-4.82-7.13-4.82-5.69a23.93,23.93,0,0,0,1.71,4.51c1.9,4.19,4.64,5.22,3.11,1.18ZM608.61,556c-.8-3.06-4.85-7.21-4.85-5,0,1.38,4.2,7.86,5.1,7.86.28,0,.17-1.3-.25-2.9ZM564,555.6c0-1.9-3.43-7-4.64-7-.38,0-.39,2,0,4.42.62,4.19,4.78,6.48,4.68,2.57ZM585.5,550c-2.09-2.48-3.8-5.46-3.8-6.61,0-2.44-2.34-2.79-3.72-.56-.52.85,1.56,4.59,4.62,8.33s5.82,6,6.13,5.07-1.14-3.74-3.23-6.23ZM599.35,556c0-2-8.84-11.82-10.68-11.82-.85,0-.45,1.21.89,2.69s2.43,3.43,2.43,4.33,1.48,2.67,3.27,3.93C599.1,557.84,599.35,557.89,599.35,556Zm-20.06-2.26c-.47-1.21-1.44-2.21-2.16-2.21s-1.31,1-1.31,2.21A2.19,2.19,0,0,0,578,556C579.29,556,579.8,555.1,579.29,553.76Zm-32.89-.51c0-.68-1.33-2.44-2.94-3.9-3.24-2.93-3.77-2.08-1.42,2.3C543.57,554.52,546.4,555.56,546.4,553.25Zm6.44-3.11c-4.72-5-5.5-4.89-4.15.51.72,2.85,1.91,3.85,4.61,3.85h3.64Zm17.09,2.33c0-.31-1.16-1.46-2.57-2.57-2.34-1.83-2.39-1.78-.56.55S569.93,553.68,569.93,552.47Zm-64.72-2.39c0-.81-1.16-1.46-2.57-1.45-2.2,0-2.25.23-.37,1.45C505.05,551.88,505.21,551.88,505.21,550.08ZM1003.43,538c3.61-4.67,5.14-15.93,4.16-30.77-.54-8.32-1.27-15.42-1.62-15.77s0-1.44.86-2.43c1-1.26.88-2-.59-2.6-1.23-.48-2.53-4-3.15-8.63-1.87-13.76-14.74-44.08-19.89-46.83-4-2.16-6.37-13.47-5.33-25.79.9-10.6.62-11.51-3.45-11.26a331.38,331.38,0,0,0-37.3,4,140.49,140.49,0,0,1-16.18,2.21,39.83,39.83,0,0,0-10.45,2.14c-4,1.41-6.14,1.58-6.79.54s-3-.54-6.92,1.35c-4.26,2.06-6.43,2.43-7.56,1.31s-1.58-.89-1.58.83c0,3.31-3,4.89-4.55,2.41-.71-1.12-1.3-5.83-1.31-10.49,0-6.54.48-8.45,2.19-8.45a2.21,2.21,0,0,1,2.2,2.2c0,1.22.7,2.21,1.56,2.21s1.14-.67.64-1.48-.5-2.8,0-4.39c1.6-5,12.51-2.48,12.51,2.93,0,4.77,2.92,4.84,3.87.1,1.12-5.61,4.59-5.92,5.22-.48.51,4.4,3.44,5.66,9.58,4.11,3.42-.86,3.66-1.42,2.83-6.66-.57-3.57-.3-6.1.72-6.73,2.19-1.35,4.2,2.07,4.23,7.19,0,3.16.64,4,2.6,3.67s2.69-2.18,3-6.73c.25-3.43,1.1-6.24,1.89-6.24,1.5,0,2,1.12,3.45,7.72.59,2.71,1.82,4.05,3.71,4.05,3.66,0,5.15-2.55,4.75-8.07-.18-2.44.27-5.35,1-6.46,2.22-3.37,4.61-.37,4.61,5.79,0,4.17.61,5.8,2.2,5.8,2.15,0,2.89-3.71,2.27-11.4-.18-2.15.54-3.31,2-3.31s2.94,2.33,4.09,6.64c2.41,9,4.83,7.48,4.83-3.09v-8.7l5.52-.46c5.33-.44,5.52-.3,5.62,4.42a27.93,27.93,0,0,0,1.23,7.75c1.05,2.68,1.19,2.63,2-.73,2.58-10.4,1.33-28.14-2.93-41.87-5.87-18.92-8.52-23.31-22.08-36.62-12.77-12.53-18.7-17.07-22.31-17.07-3.45,0-4.09,2.84-1.28,5.65,1.45,1.46,1.38,2.1-.35,3.18-1.91,1.17-1.86,1.9.38,5.68,3.08,5.21,3.3,9,.52,9-1.12,0-2.42,1.46-2.88,3.25l-.85,3.25-3.94-3.62-3.93-3.62,1.79,3.44c4.52,8.67-3.65,3.43-10.86-7a32.13,32.13,0,0,0-8.18-8c-2.46-1.45-4.09-3.26-3.62-4,1.56-2.53,3.64-1.42,11.11,6,8.1,8,12,9.74,7.53,3.31-1.56-2.22-2.57-4.79-2.25-5.7.71-2-8.85-7.9-12.77-7.9-1.52,0-3.18.66-3.68,1.47-1.11,1.79-5.15,2-5.15.2,0-.69,2.15-3.68,4.78-6.64,8.5-9.55,12.87-15.26,12.87-16.81a2.31,2.31,0,0,1,1.11-2c.6-.27,3.35-3.8,6.1-7.83,4.57-6.72,5-8.22,4.88-17.88-.14-13.61-6.52-32.06-12.92-37.38a5.62,5.62,0,0,1-2.11-3.19c0-2-8.28-12.27-15.39-19.05-8.23-7.85-24.51-15.51-34.9-16.42-8.08-.71-8.33-.63-7.24,2.45.62,1.76,4.05,4.7,7.63,6.53,11.5,5.89,8.48,8.25-4,3.16-3.75-1.53-5.09-1.54-6.9,0-2.75,2.29-1.54,6,2,6s13.82,8.32,11.77,9.59c-1.1.68-.81,1.9.91,3.79,1.39,1.54,2.2,2.8,1.79,2.8-1.42,0-10.77-4.86-13-6.75-1.91-1.64-3.33-1.75-8.8-.69-.4.08,2.57,3.05,6.62,6.6s6.89,6.91,6.33,7.49-3.92-.36-7.45-2.07c-12.82-6.2-15.2-3.08-4,5.27,4,3,7.36,6.67,7.36,8.12s-.35,2.62-.77,2.62c-1.48,0-11.8-7-13.7-9.27-1.06-1.28-2.86-2-4-1.53-1.7.65-1.62,1.4.48,4.28,1.39,1.92,3.23,3.51,4.09,3.53,1.81.06,8,8,8,10.29s-2.87,1.8-7.08-1.52c-5.28-4.15-6-1.09-1.15,5.2,7.73,10.13,4,10-6.48-.15-5.66-5.54-10.29-10.84-10.29-11.8,0-2.35,4.88-10.77,6.25-10.78.61,0,1.1-.84,1.11-1.85,0-1.89,10.74-23.81,13.07-26.7s6-24.28,6-34.19c0-9.54-.42-10.68-8.52-22.95-5-7.53-22.26-20.18-35.6-26C799.2,90,792.31,87,790,85.84c-6.77-3.21-11-2.59-12.71,1.84a12,12,0,0,0-.67,6.42c1.1,3.48-2.75,6.3-9.93,7.28-9.21,1.26-8.33,3.85,1.11,3.26s11.18,2,2.57,3.57c-5.83,1-13.6,4.91-13.6,6.75,0,.61,4.47.72,9.93.26,9.72-.82,9.85-.78,6.44,1.74-3.09,2.28-3.22,2.73-1.08,3.92,3.1,1.74,1.67,4.1-2.51,4.17a17.63,17.63,0,0,0-6.9,2.15c-3.59,2.06-3.53,2.11,3,2.16,3.68,0,7.44-.7,8.36-1.62a4.41,4.41,0,0,1,4.33-.63c2.57,1,2.56,1.12-.1,3.08-1.52,1.12-5.62,2.47-9.1,3s-7.5,2.26-9,3.95c-2.66,3-2.64,3,7.26,2.22,5.46-.43,9.93-.27,9.93.35,0,1.24-5.89,3.7-12.13,5.06-6.46,1.41-4.84,3.93,1.83,2.87,4-.65,5.89-.41,5.89.76,0,2.05-5.87,4.45-8.46,3.47-3.09-1.18-2,2.34,1.22,4.09,2.87,1.54,2.91,1.81.63,4.33s-2.24,2.76.62,3.66c4.18,1.33,3.84,3.71-.54,3.71-2,0-4,.74-4.61,1.64-1.55,2.52,2.55,4.35,7.43,3.32,3.93-.83,4.18-.68,2.4,1.47a7,7,0,0,1-4.58,2.4,6.6,6.6,0,0,0-4.41,2.21c-1.59,1.91-.72,2.2,6.62,2.2s8.21.29,6.62,2.21c-1,1.22-4.22,2.2-7.21,2.2s-6.85,1-8.64,2.29c-4.1,2.87-4.44,5.79-.43,3.65,3.57-1.91,9.94-2,11.09-.12.48.78-.82,2.52-2.89,3.87-2.83,1.85-3.52,3.25-2.8,5.58a8.56,8.56,0,0,0,3,4.31c2.89,1.69,1,4-3.27,4a14.41,14.41,0,0,0-6.49,1.8c-3.7,2.31-6.36,0-6.06-5.37a62.13,62.13,0,0,0,0-6.36c-.1-1.42-.28-12.69-.4-25-.14-14.66-.79-22.85-1.86-23.54-.9-.58-2.42-9.57-3.39-20-1.17-12.51-3-22.21-5.27-28.59-1.93-5.31-3.19-10.18-2.79-10.82,1.46-2.36-7.36-13.23-15.07-18.56-6-4.16-24.09-12.09-27.55-12.09-2,0-4.1-.66-4.6-1.47-3.19-5.17-28.56,3.49-41.64,14.22-3.56,2.92-10.56,21-10.44,27a21.28,21.28,0,0,0,1.32,6.62c1.1,2.6,1.36,2.39,2.28-1.84.58-2.63,1.63-4.78,2.33-4.78s1.36,2.15,1.44,4.78c.14,4.68,2.35,13.57,2.65,10.67.18-1.81,7.95-11,9.29-11,.54,0,0,1.82-1.14,4a19.78,19.78,0,0,0-2.07,7.72l0,3.68,3.64-4.14c3-3.38,3.8-3.72,4.53-1.83.48,1.28-.34,4.13-1.85,6.35-2.63,3.9-6.41,11.68-6.41,13.21,0,1.87,4.75-3.49,7.63-8.63,1.76-3.13,4.07-5.7,5.14-5.7,2.89,0,2.35,2.59-1.63,7.82a30,30,0,0,0-4.57,8.73c-1.5,6,2.7,5.28,6.47-1.1,1.67-2.83,3.72-5.15,4.56-5.15,2.78,0,1.57,4.54-3,11.14-5.86,8.52-2.67,8.37,5.61-.27,4.74-4.95,6.93-6.34,8.12-5.16s.85,2.38-1.23,4.4c-7.08,6.85-10.37,12.71-8,14.19.77.47,4.1-1.83,7.41-5.1s6.63-6,7.37-6c2.84,0,1.15,3.76-4.09,9.13-3.75,3.84-5,6.05-3.92,7.09,1.9,1.9,6.42.31,6.42-2.26,0-1.05,2-2.6,4.42-3.44,6.27-2.19,5.87,1.25-.74,6.29-3,2.26-5.15,5.22-5.15,7,0,2.89.18,2.92,3.31.65,9.92-7.18,10.06-7.25,11.75-5.56,1.24,1.24.22,2.92-4,6.58-4.55,3.94-5.21,5.09-3.3,5.82,1.33.51,4-.34,6-2,6.35-5,7.06-3.1,1.73,4.65-2.84,4.13-4.8,8.1-4.35,8.83,1.49,2.41,4.46,1.36,8.73-3.1,6.8-7.09,9.31-5,3.48,2.9-1.73,2.33-2.77,5.2-2.32,6.38,1,2.65-1.61,5.43-5.13,5.43-2.89,0-3,.54-1.71,5.56.66,2.46,1.63,3.12,3.66,2.47,1.86-.59,2.76-.15,2.76,1.33a3.2,3.2,0,0,0,2.57,2.77c1.88.42,1.18,1.19-2.57,2.82a23.89,23.89,0,0,0-7.36,4.92c-2.06,2.51-1.93,2.62,2.07,1.62,2.35-.59,4.67-.53,5.15.12a14.25,14.25,0,0,0,3.67,2.73,10.66,10.66,0,0,1,4,4.92c1,2.73.68,3.52-1.7,4.14-1.62.43-2.94,1.76-2.94,3,0,1.7,1.12,2,4.94,1.27,3.52-.66,5.48-.28,6.8,1.31,2.63,3.17,4,2.78,5-1.44.51-2,1.41-3.67,2-3.67,1.94,0,7.69,11.52,7.69,15.36,0,2.77.77,3.75,3,3.75,3.43,0,3.94,2.65.73,3.88a3.5,3.5,0,0,0-2.21,2.9c0,3.87,4.47,2,10.69-4.37,5.13-5.28,7-6.3,10.53-5.8,5.85.84,10,3.23,9.24,5.33-.68,1.91-2.29,2-9.5.36-4.13-.92-4.78-.67-4.78,1.83a4,4,0,0,0,3.29,3.74c2.6.68,2.91,1.24,1.47,2.68-2.51,2.5-2.27,5.63.43,5.63s4.68,4.67,8.2,20.11c2.54,11.08,8.41,28.06,8.6,24.83,0-.77-1.34-8.26-3.08-16.63-2.32-11.2-2.72-15.66-1.51-16.87s2-.7,3.14,1.92c1.27,3,1.45,2.42,1.15-3.65-.43-8.65,2.56-10.94,5.19-4,1.89,5,3.25,5.72,4.55,2.35a3.54,3.54,0,0,1,3-2.2c1.18,0,2.57-1.33,3.08-2.95s1.93-2.94,3.14-2.94c1.51,0,1.92-.89,1.31-2.82-1.49-4.7,2.15-5.1,6.7-.74,5.26,5,5.59,3.34.62-3.19-4.09-5.36-4.66-8-1.73-8,3.16,0,15.7,16.49,15.7,20.64,0,.86,1,3.59,2.31,6,2.11,4.08,2.11,4.92-.06,9.49-2.86,6-4.76,6.34-6.74,1.14-.81-2.14-1.79-3.56-2.19-3.17s.29,3.11,1.52,6a28.8,28.8,0,0,1,2.22,8.28c0,3.53-7.52,9.13-8.47,6.3-.33-1-1.13-1.8-1.78-1.8s-1,5.44-.66,12.09c.46,10.51,1,12.44,3.88,14.68,1.85,1.42,3.84,2.59,4.44,2.61s.66-4.91.15-11c-.81-9.63-.61-11.12,1.64-12,3.34-1.29,4.78,1.19,6,10.4.55,4.08,1.64,8.63,2.41,10.1a68.35,68.35,0,0,1,3.4,10.3c1.09,4.19,3.36,12.74,5,19,3.21,11.95,3.8,17.31,1.93,17.31-.62,0-2.3-3.31-3.74-7.35s-3.25-7.36-4-7.36c-2,0-1.76,2.41.62,7.06a61.7,61.7,0,0,1,3.75,12.24c.93,4.54,2.7,9.51,3.92,11,2.1,2.61,2.13,2.58.62-.54-1.23-2.54-1.16-3.37.29-3.54,1-.12,2.55-.37,3.36-.56a28.8,28.8,0,0,1,3.41-.51c1.32-.12,1.6-1.22.88-3.48a28.68,28.68,0,0,1-.88-8c.11-3.06-.78-5.4-2.51-6.62-3.78-2.66-5.07-7.77-2.86-11.3,1.48-2.38,1.5-4.35.07-9.68-2.44-9.12-2.26-11.06,1-11.06,2.71,0,6,6.3,6,11.45a5.75,5.75,0,0,0,2,3.83c3.08,2.48,6.86,15.16,7.83,26.27.76,8.65.55,9.93-1.59,9.93-1.86,0-2.41-1.19-2.21-4.78.32-5.81-3.34-19.21-4.21-15.41-.33,1.43.11,5.93,1,10,1.92,8.95,2.06,17.54.28,17.54-1.44,0-3.4,6.09-2.3,7.18.38.39,1.66-.58,2.85-2.14,1.88-2.45,2.36-2.54,3.64-.63,2.3,3.43,1.82,14.89-.73,17.71-1.9,2.1-2,3.61-.55,9.67a138,138,0,0,0,4.46,14.37c1.52,4,2.76,8.12,2.76,9.26,0,2.31,1.77,4.79,7.72,10.81,2.22,2.24,4,5.14,4,6.43,0,3,2.35,3.07,3.48.15,1.75-4.57,3.74-1.94,4.17,5.52l.44,7.72,2.72-7.8c2.68-7.69,6.22-9.73,6-3.45-.15,4.18.61,4,2.36-.61.8-2.09,2.13-3.33,3-2.79a2.58,2.58,0,0,1,.79,3,9.14,9.14,0,0,0,.49,5.37c1.36,3.52,1.58,3.26,3.87-4.42a3.17,3.17,0,0,1,3-1.83c2.07,0,2.31,1.06,1.51,6.87-1,7-.28,7.46,2.6,1.73s5.08-4.86,5.59,2l.46,6.34,2.42-5.34c3.6-8,6.18-8.88,5.21-1.84-.44,3.14-1.25,7.53-1.82,9.75-1.57,6.22,1.75,4.93,3.81-1.47,2.93-9.09,6.26-11.79,7.7-6.25.56,2.14,2,2.94,5.32,2.94,3.9,0,4.55.54,4.55,3.75,0,2.11-1.6,5.24-3.67,7.16-4.61,4.27-4.53,5.21.76,9.38l4.27,3.38,3.81-7.52c2.1-4.15,4.6-7.24,5.57-6.89,1.83.64,1.81,1.49-.24,13.18-1.1,6.24-.94,7,1.47,7,2,0,3.15-1.77,4.36-6.57,1.94-7.74,5.21-11.31,7.34-8,1.46,2.25.38,12.25-1.77,16.35-2,3.83-1.56,5.62,1.4,5.62,2.74,0,4.11-3.13,7.63-17.29,1.2-4.84,2.23-6.25,4.59-6.25,2.59,0,2.89.61,2,4-1.06,4.18-3.38,16.57-4.06,21.64a2.83,2.83,0,0,0,1.93,3.36c1.78.37,2.93-2.14,5-11,3.61-15.59,3.46-15.14,5.17-15.14,2.4,0,1.78,17.92-.74,21.25-2.64,3.48-2.84,9.65-.32,9.62,4.8-.06,7.77-6.29,9.29-19.47.66-5.75,1.63-8.45,3-8.45,2.94,0,2.3,17.44-1.06,29.23a2.11,2.11,0,0,0,1,2.6c1.87.69,4.64-6.69,5.88-15.65a75.42,75.42,0,0,1,2.12-10.3c.67-2,1.63-4.95,2.14-6.5.66-2,1.37-2.37,2.51-1.23a2.88,2.88,0,0,1,.5,3.35c-.6,1-1.3,4.17-1.56,7.12-1.47,16.77-2,21.06-2.83,23.72-1,3.28,1.05,4,3.27,1.12ZM855.28,416.3a13.16,13.16,0,0,1,1.58-4.67c1.14-2.14,1.09-3.51-.17-5-2.08-2.52-.69-7,1.9-6.18,1,.34,2.26,2.54,2.77,4.9.9,4.14.94,4.1,1.1-1,.2-6.14,3.94-10.58,5.49-6.53,1.36,3.54-.34,14.15-2.63,16.38C862.51,416.89,855.28,418.44,855.28,416.3Zm18.55-6.81c-2.69-7,1-23.5,4.13-18.46,1.31,2.12,1.42,17.22.14,19.29s-3.25,1.83-4.27-.83ZM854,370.64c-8.74-28.54-9.34-31.11-7.7-32.75,1.18-1.19,2.12-1.22,3.24-.1,2.37,2.36,7.4,26.84,6.91,33.58l-.43,5.88Zm4.76-25.31c-5.1-8.77-3.72-20.28,1.48-12.35,2.28,3.49,3.78,14.74,2.17,16.35C861.91,349.79,860.26,348,858.72,345.33Zm8.62-8.16a32.88,32.88,0,0,1-3.87-7.35c-.84-2.7-.47-3.31,2-3.31,2.06,0,3-.95,3-2.94,0-3.78-.49-3.71-5.33.77-2.89,2.68-4.45,3.27-5.59,2.11s-.82-2.18,1.12-3.6c1.48-1.1,9.58-8.67,18-16.82s16-14.82,16.79-14.82c2.09,0,1.87,2.46-.57,6.3s-1.33,7.42,3.39,12.39c1.7,1.79,3.09,3.88,3.09,4.66a2.18,2.18,0,0,0,1.28,1.9c1.86.71,3.59,7.11,1.92,7.11-.78,0-1.8-1-2.26-2.21a4,4,0,0,0-3.47-2.21c-1.61,0-4-2.56-6.13-6.61-3.47-6.54-6.35-8.23-8.39-4.93-.61,1,.62,2.91,2.89,4.57,4.49,3.27,8.84,10.76,7.5,12.93a1.62,1.62,0,0,1-2.17.66,1.64,1.64,0,0,0-2.19.72c-1.74,2.82-3.77,1.48-7.76-5.13-4.7-7.79-6.9-8.54-5.37-1.84.6,2.63,1.22,5.78,1.38,7a22.57,22.57,0,0,0,1.37,4.71c1.54,3.62-.38,6.18-3,4-1.7-1.41-2.08-1-2.08,2.13,0,5-2,4.9-5.59-.19Zm48.41-15.44c-2.79-7.46-3.15-9.73-1.67-10.64s7.52,10.88,6.38,12.84C919.24,326.06,917,325,915.75,321.73ZM908,317.31a67.61,67.61,0,0,0-8.45-10.57c-4.27-4.08-6.09-9.65-3.17-9.65,2,0,8.95,8.71,8.95,11.19a3.56,3.56,0,0,0,2.21,3,3.82,3.82,0,0,1,2.21,3.34,6.69,6.69,0,0,0,1.63,4.12,3.66,3.66,0,0,1,1.11,3.23c-.3.87-2.31-1.22-4.49-4.65ZM769.39,272.82c-2.27-5.2-3.53-15.59-1.81-15s4.18,10.66,3.54,15C770.68,275.76,770.68,275.76,769.39,272.82Zm47-8.66c-2.36-5.17-6.18-11.57-8.5-14.22-4.72-5.41-4.66-8.19.16-7.64,1.78.2,2.89-.2,2.46-.89s.08-2.41,1.12-3.83c1.73-2.38,2.39-2.07,8.06,3.71,9,9.19,13.38,19,8.45,19-1.16,0-3.48-1.76-5.17-3.9s-3.36-3.61-3.72-3.26c-.75.76,2.61,11,4.1,12.53.55.55,1,2.55,1,4.44,0,6.26-3.62,3.55-8-6Zm16.4-10.83c-.31-.6-1.45-3.92-2.53-7.37a41.51,41.51,0,0,0-6.88-12c-5-5.85-6.37-10.43-3.07-10.39,2.12,0,9.15,8.2,14.83,17.21,3.35,5.33,3.66,6.74,2.21,9.93C835.7,254.41,833.91,255.44,832.83,253.33Zm-85.41-8.7c-2.12-2.12-.79-4.93,3.36-7.07,4.83-2.5,13.31-3,13.31-.83,0,1.81-4.91,4.47-8.25,4.47a8.89,8.89,0,0,0-5,2.21c-1.35,1.21-2.89,1.76-3.43,1.22Zm3.73-13.88c.47-1.43,10.32-5.65,13.31-5.71,3.21-.06.42,4.05-3.79,5.57-6.1,2.2-10.23,2.26-9.52.14Zm3.3-11.74c-1.37-2.22.61-3.76,7-5.5,3.6-1,5.82-1,6.4,0s.66,1.59.38,1.76c-1.36.83-11.72,5.38-12.24,5.38C755.71,220.61,755,219.89,754.45,219Zm-44.76-19.36c0-2.65,1.8-4.86,4.76-6,3.44-1.27,3.37,2.19-.12,5.35-3.21,2.91-4.67,3.09-4.64.6Zm162.88-19.86c-1.42-.32-2.58-1.2-2.58-1.95,0-1.78,5.46-1.77,6.56,0s-.74,2.68-4,1.94ZM770,157.63c0-1.5,6-3.54,7.17-2.42.94.94,0,1.61-3.86,2.8C771.46,158.57,770,158.4,770,157.63ZM864.09,529c0-.66-.64-.78-1.45-.28a4.3,4.3,0,0,0-1.45,3.39c0,2.15.22,2.18,1.45.28A9.3,9.3,0,0,0,864.09,529ZM685.27,527.5c-.94-2.47-3.55-3.38-3.55-1.25,0,1.44,3.28,4.86,4,4.16.28-.27.08-1.59-.43-2.91Zm-290.73-2c-2.18-2.18-4.36-3.57-4.84-3.09-1.06,1.07,5.12,7.06,7.28,7.06.84,0-.26-1.78-2.44-4Zm271.52.26c-.42-1.1-2.27-3-4.1-4.18-3.2-2.09-3.3-2-2.59,1.75.4,2.17,1.39,4.37,2.21,4.9C663.85,529.73,666.92,528,666.06,525.78Zm11.25,1.59a3.66,3.66,0,0,0-1.18-2.84c-1.88-1.17-5.18,1.53-4.07,3.33C673.52,530.22,677.31,529.87,677.31,527.37Zm-34.77-7.31c-5-6.29-7-6.82-4.63-1.23,2.56,6,5.85,9.49,7.46,7.88C646.23,525.86,645.15,523.34,642.54,520.06Zm56.94-1.34c-1.89-1.9-2.09.79-.47,6.36l1.08,3.68.49-4.23c.27-2.32-.22-4.94-1.1-5.81Zm-109,5.95c0-2-5.1-6.95-7.24-6.95-.73,0-.58,2,.34,4.42C585.28,526.52,590.52,528.45,590.52,524.67Zm11.77.59c0-1.71-4.28-5.22-5.22-4.28-1.33,1.33,1.08,5.57,3.17,5.57C601.37,526.55,602.29,526,602.29,525.26Zm22.06-.18a1.52,1.52,0,0,0-1.55-1.47c-.86,0-1.15.66-.65,1.47s1.2,1.47,1.56,1.47S624.35,525.89,624.35,525.08Zm10.29.37c0-.61-1.69-3.09-3.75-5.52-3.62-4.28-3.71-4.3-2.75-.74a18.33,18.33,0,0,0,2.46,5.52C632.22,526.74,634.65,527.18,634.64,525.45ZM653.28,523c-1-2.13-2.07-2.92-2.66-2-1.36,2.19.11,5.54,2.44,5.54,1.5,0,1.55-.76.22-3.57Zm-78.2.63a3.22,3.22,0,0,0-2.38-1.47c-.81,0-1.06.66-.56,1.47a3.22,3.22,0,0,0,2.38,1.47C575.33,525.08,575.58,524.42,575.08,523.61Zm-6.59-13.22c-2.74-1.69-3.6-.83-2.37,2.37.76,2,1.35,2.13,2.74.74S570.17,511.43,568.49,510.39Zm275,2.19c0-1.22-.65-2.21-1.43-2.21s-1,1-.58,2.21,1.11,2.2,1.43,2.2S843.52,513.79,843.52,512.58Zm-207.13-2.53c-1-1.05-1.74-1.14-1.74-.22a4,4,0,0,0,1,2.5,1.26,1.26,0,0,0,1.74.22c.42-.42,0-1.54-1-2.5Zm-20.86-3.91c0-.71-1-2.12-2.21-3.12-1.79-1.49-2.2-1.43-2.2.31a5.15,5.15,0,0,0,1,3.12C613.49,507.84,615.53,507.66,615.53,506.14Zm210.14-15.26c-1.23-2.3-2-2.69-2.44-1.3a3.07,3.07,0,0,0,1.35,3.29C827.52,494.73,827.63,494.54,825.67,490.88Zm5.62-3.3c-1.77-3.64-3.75-6.62-4.41-6.62s-.91.49-.56,1.09,1.78,3.59,3.2,6.62,3.11,5.52,3.78,5.52S833.07,491.21,831.29,487.58ZM711.14,486c0-2.57-20.6-13.07-22.21-11.33-.56.6-.69,3.15-.3,5.67.71,4.52.83,4.57,9.62,4.7,4.9.07,9.6.82,10.45,1.68,2.07,2.06,2.44,2,2.44-.72Zm-48.28-4.44c-.94-8.42-5.06-12.27-6.91-6.45-.68,2.16-1.46,2.59-2.74,1.54-2.65-2.21-8.1-1.44-7.16,1,.59,1.54,1,1.6,1.88.24,1.59-2.57,3.86-.64,4.81,4.08.7,3.52,1.48,4.06,5.7,3.91,4.47-.15,4.85-.53,4.42-4.33Zm8.56-6.53c0-1.62-.6-2.94-1.33-2.94s-1,1.32-.56,2.94,1,2.94,1.33,2.94S671.42,476.69,671.42,475.07Zm13.24,1.47a1.52,1.52,0,0,0-1.56-1.47c-.85,0-1.15.66-.65,1.47S683.66,478,684,478,684.66,477.35,684.66,476.54ZM470.14,470c-.46-5.89-.81-6.44-3.23-5.14-4.39,2.34-4.64,4-1.19,8,1.79,2.06,3.63,3.74,4.1,3.74S470.43,473.57,470.14,470Zm213,1.07a9.5,9.5,0,0,0-1.45-3.31c-1.15-1.78-1.43-1.57-1.45,1.11,0,1.82.64,3.31,1.45,3.31S683.18,471.63,683.17,471Zm-53.72-4.41c.93-2.4,1.14-2.38,3.08.26,2.71,3.68,4.06,2.27,2.3-2.37-1.47-3.85-8.05-9-9.57-7.5-1.22,1.22-1.16,10,.07,11.2,1.66,1.66,3.07,1.11,4.12-1.59Zm19-1.14c3.82-2,4.53-2,6.77,0s2.5,1.9,2.36-2.55-8.81-18.58-11.46-18.73c-1.89-.11-3,6.12-1.35,7.74,2,2,2.13,6.91.16,6.91-.8,0-2.29-1.33-3.3-2.94s-2.34-2.95-2.95-2.95c-2.13,0-1.11,9.35,1.32,12,2.93,3.25,3.07,3.25,8.45.45Zm28.81-.33c0-.61-3-4.41-6.58-8.46s-6.58-7.77-6.6-8.28-2.36-4.77-5.19-9.47-5.15-9.75-5.15-11.21c0-3.18-1.93-3.45-4.3-.59-1.34,1.62-1,3.65,1.41,9.19,4.45,10.13,7.08,15.62,8.68,18.16a24.86,24.86,0,0,1,2.29,6.43c.81,3.83,1.34,4.15,5.73,3.44,2.66-.43,5.77-.19,6.91.53,2.56,1.62,2.82,1.65,2.8.26ZM553,463.3a3.22,3.22,0,0,0-2.38-1.47c-.81,0-1.07.66-.57,1.47a3.23,3.23,0,0,0,2.38,1.47C553.26,464.77,553.52,464.11,553,463.3Zm-73.15-5.88c1-1.62,1.3-2.94.64-2.94-1.53,0-4.71,3.17-4.71,4.7,0,2.17,2.21,1.21,4.07-1.76Zm98.89-6.62c0-2-.66-3.68-1.47-3.68-1.65,0-2,4.85-.49,6.38S578.76,454.65,578.76,450.8Zm-53-10.14c0-.32-1-1-2.21-1.42s-2.21-.21-2.21.57,1,1.43,2.21,1.43S525.81,441,525.81,440.66Zm12.59-6.34c-2.16-1.86-4.49-3.38-5.17-3.38s-1.14,1.52-1,3.38c.18,2.82,1,3.39,5.17,3.39h5l-3.93-3.39Zm48.45-1.91c3-3.28,8.95-3.94,10-1.1.37,1,.56-.15.44-2.57-.22-4.18-3-10.9-5.24-12.51a15.74,15.74,0,0,1-2.68-3.67c-1.63-2.88-1.67-2.88-1.71.27a22.5,22.5,0,0,0,1.37,6.93c2.08,5.48-.76,6.13-3.86.88-1.54-2.61-3.47-4.15-4.63-3.7a12,12,0,0,1-3.46.76c-1.66,0-.2,8.59,1.9,11.22a4.54,4.54,0,0,1,.41,4c-1.35,3.51,4.18,3.1,7.49-.55Zm-23.43-11c2.14-3.26,2.15-3.87.14-5.88-2.59-2.6-4.56-3-3.1-.64.55.89.12,3.24-.94,5.24-1.54,2.86-2.73,3.44-5.69,2.75s-3.22-.5-1.55.63a7.77,7.77,0,0,0,11.14-2.1ZM842.66,419a1.59,1.59,0,0,1,.83-2c.82-.5,1.43-3,1.35-5.61l-.15-4.7-1.18,5c-.64,2.74-2,5.48-3,6.11s-1.41,2.23-.81,3.81c.85,2.21,1.26,2.32,2.33.59.71-1.16,1-2.58.63-3.17Zm-238.89-2.4c-3.06-9.83-5.18-13.59-7.68-13.59-4.4,0-2.27,8.93,3.75,15.77C603.48,422.89,605.39,421.82,603.77,416.58Zm16.17,2.59a1.53,1.53,0,0,0-1.56-1.47c-.85,0-1.14.67-.64,1.47s1.2,1.48,1.55,1.48S619.94,420,619.94,419.17Zm-42.65-8.09c0-2.64-.8-3.67-2.83-3.67a18.68,18.68,0,0,1-5.51-1c-1.85-.7-1.31.46,1.71,3.68C576,415.72,577.29,415.93,577.29,411.08Zm43.5-5.81c-.56-3-1.85-5.22-3-5.22-1.66,0-1.58,1.07.43,5.77,2.93,6.85,3.93,6.64,2.58-.55Zm-12.62,3.61a1.52,1.52,0,0,0-1.55-1.47c-.86,0-1.15.66-.65,1.47s1.2,1.47,1.56,1.47S608.17,409.69,608.17,408.88Zm17-11.77C622.7,388,620,381.83,619,382.84s1.28,8.29,4.92,17C626.75,406.59,627.43,405.15,625.21,397.11Zm-45,3.68c-2-2.43-5.89-3-5.89-.86,0,1.47,2.51,2.77,5.7,2.95C581.67,403,581.71,402.57,580.23,400.79Zm255.35-3.28c-1.5-1.5-2.73.76-1.5,2.74.92,1.5,1.27,1.5,1.77,0a3,3,0,0,0-.27-2.75Zm-9.85-3.1c-.89-2.56-2.14-4.65-2.76-4.65s-1.69-2.82-2.36-6.25l-1.22-6.26-.51,6c-.62,7.2,1.67,13.89,4.74,13.89a2,2,0,0,1,2.25,1.72c0,.94.33,1.38.74,1s0-2.83-.88-5.39Zm-256.2.34a2.94,2.94,0,0,0-2.82-.11c-1.17.47-.82.81.89.88,1.55.07,2.42-.28,1.93-.77Zm65.88-2.42c-.34-1-1.41-4.82-2.39-8.46-1.63-6.08-1.86-6.32-2.86-2.94-2,6.72-1.62,11.77.81,10.83,1.22-.47,2.21-.11,2.21.78a1.54,1.54,0,0,0,1.42,1.63C635.39,394.17,635.75,393.34,635.41,392.33Zm-74.77-5.79c-.47-1.17-.82-.83-.89.89-.06,1.55.29,2.42.77,1.93a2.94,2.94,0,0,0,.12-2.82Zm-1.74-4.14c.5-.81.21-1.47-.65-1.47a1.52,1.52,0,0,0-1.56,1.47c0,.81.3,1.47.65,1.47S558.4,383.21,558.9,382.4Zm89.59-4.55c.36-2.8.87-6.05,1.13-7.22.62-2.8-6.12-3.85-7.83-1.23s-.34,8,2.83,11.32c1.39,1.47,2.69,2.56,2.88,2.44a26.78,26.78,0,0,0,1-5.31Zm-38.81,1.67c-1-1.82-2.42-2.56-3.91-2-1.95.75-1.76,1.24,1.13,2.84,4.55,2.52,4.58,2.51,2.78-.85Zm-1.51-8.84c0-.78-1-1-2.2-.58s-2.21,1.11-2.21,1.43,1,.58,2.21.58S608.17,371.47,608.17,370.68Zm44.58-15.12c-.85-4.36-3-5.33-4.29-1.95-1,2.7,2.26,8.91,3.86,7.26.68-.7.87-3.09.43-5.31Zm-47.52-1.1c0-.81-.29-1.48-.65-1.48s-1.05.67-1.55,1.48-.21,1.47.65,1.47A1.52,1.52,0,0,0,605.23,354.46Zm37-11.77c-7-5.09-7.59-5.24-7.59-2.07,0,1.29,1.32,2.69,2.94,3.11s2.94,1.36,2.94,2.07,1.76,1.3,3.9,1.3C648.16,347.1,648.07,346.91,642.24,342.69Zm-23.77-36c0-1.21-.38-2.2-.84-2.2s-1.83,1-3,2.2c-2,2-1.86,2.21.84,2.21C617.15,308.86,618.47,307.9,618.47,306.65Zm138.42-13.42c2-2.42-1.49-9.38-4.72-9.38-4.2,0-4.49-2.35-.65-5.24,2.84-2.13,3.25-3.22,2.06-5.44a6.91,6.91,0,0,1-.7-4.83,4.16,4.16,0,0,0-1.12-4,12.23,12.23,0,0,1-2.56-3.85c-.47-1.44-1.59-1.11-4.28,1.25q-3.64,3.21-1.1,2.4c3.82-1.2,4.55,1.53,1.07,4-2.76,1.94-2.91,2.73-1.45,8.13.88,3.29,2.28,6.4,3.11,6.91,1,.61.87,1.69-.34,3.14-1.5,1.81-1.4,2.47.55,3.56,1.31.73,3.6,4.81,5.08,9.05l2.69,7.71.47-5.86c.27-3.23,1.11-6.63,1.89-7.56Zm-31-12.32c0-.81-1-1.47-2.21-1.47s-2.21.66-2.21,1.47,1,1.47,2.21,1.47S725.85,281.72,725.85,280.91Zm-5-8.59c-3.14-.61-4.42.5-3.07,2.68.73,1.18,1.66,1.1,3.32-.27C723.13,273,723.11,272.77,720.81,272.32Zm3-6.34c.57-.93-.21-2.61-1.74-3.73-2.22-1.63-2.9-1.65-3.4-.14a9.9,9.9,0,0,1-3,3.68c-2,1.52-1.63,1.8,2.36,1.84C720.62,267.65,723.2,266.91,723.78,266ZM702.84,253.7c.47-1.21.21-2.21-.57-2.21s-1.43,1-1.43,2.21.26,2.21.58,2.21S702.38,254.91,702.84,253.7Zm17.08.79c1.19-.75,1.72-1.81,1.17-2.36s-2.06.09-3.37,1.4C715.13,256.11,716.44,256.69,719.92,254.49ZM717,244.14c0-1.84-1.56-1.84-4.41,0-1.79,1.15-1.58,1.43,1.1,1.45C715.53,245.6,717,245,717,244.14Zm-37.92-12a4.89,4.89,0,0,0-2.37-3.15c-1.33-.51-1.39.9-.23,5.9,1.27,5.46,1.67,6,2.37,3.14A14.94,14.94,0,0,0,679.1,232.11Zm88.67-111.52c.5-.81-.13-1.48-1.39-1.48s-2.29.67-2.29,1.48a1.44,1.44,0,0,0,1.38,1.47A3.19,3.19,0,0,0,767.77,120.59Z"/></svg>